<svg width="48" height="48" viewBox="0 0 48 48" fill="none" xmlns="http://www.w3.org/2000/svg">
<path d="M24 48C37.2548 48 48 37.2548 48 24C48 10.7452 37.2548 0 24 0C10.7452 0 0 10.7452 0 24C0 37.2548 10.7452 48 24 48Z" fill="url(#paint0_linear_106_96)"/>
<path fill-rule="evenodd" clip-rule="evenodd" d="M15 16.5L24 13.5L33 16.5V25.5C33 30.4711 28.9711 34.5 24 34.5C19.0289 34.5 15 30.4711 15 25.5V16.5ZM20.5941 22.9489C20.6964 22.9914 20.7894 23.0537 20.8676 23.1323L23.3192 25.5839L27.9293 20.9761C28.0033 20.9019 28.0911 20.8432 28.1879 20.803C28.2846 20.7629 28.3883 20.7423 28.493 20.7423C28.5977 20.7423 28.7014 20.7629 28.7981 20.803C28.8948 20.8432 28.9827 20.9019 29.0567 20.9761L29.1223 21.0417C29.1964 21.1157 29.2552 21.2035 29.2953 21.3002C29.3354 21.397 29.3561 21.5006 29.3561 21.6054C29.3561 21.7101 29.3354 21.8137 29.2953 21.9105C29.2552 22.0072 29.1964 22.0951 29.1223 22.169L23.884 27.4073C23.81 27.4814 23.7222 27.5402 23.6254 27.5803C23.5287 27.6205 23.425 27.6411 23.3203 27.6411C23.2156 27.6411 23.1119 27.6205 23.0152 27.5803C22.9185 27.5402 22.8306 27.4814 22.7567 27.4073L19.6746 24.3253C19.5961 24.2471 19.5337 24.1541 19.4912 24.0518C19.4487 23.9494 19.4268 23.8396 19.4268 23.7288C19.4268 23.6179 19.4487 23.5082 19.4912 23.4058C19.5337 23.3035 19.5961 23.2105 19.6746 23.1323C19.7528 23.0537 19.8458 22.9914 19.9481 22.9489C20.0505 22.9063 20.1603 22.8844 20.2711 22.8844C20.382 22.8844 20.4917 22.9063 20.5941 22.9489Z" fill="url(#paint1_linear_106_96)"/>
<defs>
<linearGradient id="paint0_linear_106_96" x1="24" y1="0" x2="24" y2="48" gradientUnits="userSpaceOnUse">
<stop stop-color="#8B5CDB"/>
<stop offset="1" stop-color="#3A1078"/>
</linearGradient>
<linearGradient id="paint1_linear_106_96" x1="19.068" y1="17.112" x2="34.8354" y2="32.0724" gradientUnits="userSpaceOnUse">
<stop stop-color="white"/>
<stop offset="1" stop-color="white" stop-opacity="0.702"/>
</linearGradient>
</defs>
</svg>
