<svg width="53" height="51" viewBox="0 0 53 51" fill="none" xmlns="http://www.w3.org/2000/svg">
<g clip-path="url(#clip0_0_2916)">
<path d="M26.9533 50.8615C41.3387 50.8615 53.0004 39.5067 53.0004 25.4998C53.0004 11.493 41.3387 0.138184 26.9533 0.138184C12.5679 0.138184 0.90625 11.493 0.90625 25.4998C0.90625 39.5067 12.5679 50.8615 26.9533 50.8615Z" fill="#145ECD"/>
<path d="M34.9612 11.8442H30.5921C28.6609 11.8442 26.8088 12.5636 25.4432 13.8441C24.0777 15.1247 23.3105 16.8615 23.3105 18.6724V22.7693H18.9414V28.2317H23.3105V39.1567H29.1357V28.2317H33.5048L34.9612 22.7693H29.1357V18.6724C29.1357 18.3102 29.2893 17.9628 29.5624 17.7068C29.8354 17.4506 30.206 17.3067 30.5921 17.3067H34.9612V11.8442Z" fill="white"/>
</g>
<defs>
<clipPath id="clip0_0_2916">
<rect width="52.0942" height="50.7233" fill="white" transform="translate(0.90625 0.138184)"/>
</clipPath>
</defs>
</svg>
