<svg width="57" height="45" viewBox="0 0 57 45" fill="none" xmlns="http://www.w3.org/2000/svg">
<path d="M46.2103 1.17188L40.6016 6.78057" stroke="white" stroke-width="2" stroke-miterlimit="10" stroke-linecap="round"/>
<path d="M55.7237 13.0703L51.3047 17.6592" stroke="white" stroke-width="2" stroke-miterlimit="10" stroke-linecap="round"/>
<path d="M45.3581 23.6016L43.3186 25.4711C43.3186 25.4711 44.3383 27.5107 42.4688 28.8703" stroke="white" stroke-width="2" stroke-miterlimit="10" stroke-linecap="round"/>
<path d="M10.6875 23.6016L12.727 25.4711C12.727 25.4711 12.0472 27.5107 13.9167 28.8703" stroke="white" stroke-width="2" stroke-miterlimit="10" stroke-linecap="round"/>
<path d="M34.8234 13.0703C34.8234 13.0703 33.1238 14.9399 32.1041 15.6197C31.2543 16.4695 30.2345 16.9794 29.3847 16.2996C28.7048 15.6197 27.3452 14.9399 25.3056 16.1296C23.2661 17.3193 19.527 20.3786 18.5072 21.3984C17.4875 22.4181 17.6574 23.4379 18.5072 24.4577C19.357 25.3075 20.8867 25.4774 21.9064 24.7976C23.0961 23.9478 23.946 23.2679 29.2147 19.8687C29.2147 19.8687 40.942 27.517 43.1515 29.3865C45.5309 31.2561 45.8709 33.1256 44.5112 34.6553C43.1515 36.1849 41.4519 36.1849 40.6021 35.3351C40.6021 35.3351 41.6218 36.3549 40.4321 37.7146C39.2424 39.0743 37.8827 39.5841 36.693 38.3944C36.693 38.3944 37.2029 39.4142 36.0131 40.6039C34.8234 41.7936 33.6337 41.9636 32.444 40.9438C32.444 40.9438 33.1238 41.7936 31.9341 42.9834C30.7444 44.1731 29.7246 44.0031 28.7048 43.1533C28.195 42.8134 27.5151 42.1336 27.5151 42.1336" stroke="white" stroke-width="2" stroke-miterlimit="10" stroke-linecap="round" stroke-linejoin="round"/>
<path d="M27.6856 41.9582C27.6856 41.9582 27.3457 42.4681 26.4959 43.3179C25.6461 44.1677 24.7963 44.3376 23.7765 43.1479C22.7568 41.9582 23.4366 41.1084 23.4366 41.1084C22.4168 42.1281 21.3971 41.9582 20.3773 40.7684C19.3575 39.5787 19.8674 38.389 19.8674 38.389C18.8477 39.5787 17.6579 39.0688 16.6382 37.7092C15.6184 36.1795 16.4682 35.1598 16.4682 35.1598C15.6184 36.0096 14.2587 36.0096 13.069 34.31C11.8793 32.6103 12.2192 31.0807 14.0888 29.0412C14.4287 28.7013 16.4682 27.0017 17.1481 27.3416C17.8279 27.6815 19.3575 28.0214 24.1164 33.8001C28.8753 39.5787 27.6856 41.9582 27.6856 41.9582Z" stroke="white" stroke-width="2" stroke-miterlimit="10" stroke-linecap="round" stroke-linejoin="round"/>
<path d="M39.5606 5.97841L33.6719 11.8672L46.531 24.7263L52.4198 18.8376L39.5606 5.97841Z" stroke="white" stroke-width="2" stroke-miterlimit="10" stroke-linecap="round" stroke-linejoin="round"/>
<path d="M46.213 20.5432C46.4946 20.5432 46.7229 20.3149 46.7229 20.0333C46.7229 19.7517 46.4946 19.5234 46.213 19.5234C45.9314 19.5234 45.7031 19.7517 45.7031 20.0333C45.7031 20.3149 45.9314 20.5432 46.213 20.5432Z" stroke="white" stroke-width="2" stroke-miterlimit="10" stroke-linecap="round" stroke-linejoin="round"/>
<path d="M9.83594 1L15.6146 6.6087" stroke="white" stroke-width="2" stroke-miterlimit="10" stroke-linecap="round"/>
<path d="M1 13.5781L4.90909 17.4872" stroke="white" stroke-width="2" stroke-miterlimit="10" stroke-linecap="round"/>
<path d="M16.4295 5.88303L3.57031 18.7422L9.45909 24.631L22.3182 11.7718L16.4295 5.88303Z" stroke="white" stroke-width="2" stroke-miterlimit="10" stroke-linecap="round" stroke-linejoin="round"/>
<path d="M9.83801 20.3791C10.1196 20.3791 10.3479 20.1509 10.3479 19.8693C10.3479 19.5877 10.1196 19.3594 9.83801 19.3594C9.55641 19.3594 9.32812 19.5877 9.32812 19.8693C9.32812 20.1509 9.55641 20.3791 9.83801 20.3791Z" stroke="white" stroke-width="2" stroke-miterlimit="10" stroke-linecap="round" stroke-linejoin="round"/>
<path d="M21.0547 13.0703L24.4539 16.4695" stroke="white" stroke-width="2" stroke-miterlimit="10" stroke-linecap="round" stroke-linejoin="round"/>
</svg>
