<svg width="53" height="51" viewBox="0 0 53 51" fill="none" xmlns="http://www.w3.org/2000/svg">
<g clip-path="url(#clip0_0_2922)">
<path d="M26.0471 50.8615C40.4325 50.8615 52.0942 39.5067 52.0942 25.4998C52.0942 11.493 40.4325 0.138184 26.0471 0.138184C11.6617 0.138184 0 11.493 0 25.4998C0 39.5067 11.6617 50.8615 26.0471 50.8615Z" fill="#0276B7"/>
<path d="M19.9645 36.2293H15.3942V21.8876H19.9645V36.2293ZM17.6793 19.9335C16.212 19.9335 15.0273 18.7775 15.0273 17.3516C15.0273 15.9256 16.212 14.7695 17.6793 14.7695C19.1407 14.7695 20.3254 15.9256 20.3254 17.3516C20.3254 18.7716 19.1407 19.9335 17.6793 19.9335ZM37.0671 36.2293H32.5029V29.258C32.5029 27.5973 32.4728 25.4554 30.1275 25.4554C27.752 25.4554 27.3913 27.2687 27.3913 29.1406V36.2293H22.8331V21.8876H27.2109V23.8476H27.271C27.8784 22.7209 29.3697 21.5297 31.5888 21.5297C36.2133 21.5297 37.0671 24.4989 37.0671 28.3602V36.2293Z" fill="white"/>
</g>
<defs>
<clipPath id="clip0_0_2922">
<rect width="52.0942" height="50.7233" fill="white" transform="translate(0 0.138184)"/>
</clipPath>
</defs>
</svg>
