<svg width="57" height="51" viewBox="0 0 57 51" fill="none" xmlns="http://www.w3.org/2000/svg">
<g clip-path="url(#clip0_0_2919)">
<path d="M28.1265 50.8615C43.1124 50.8615 55.2609 39.5067 55.2609 25.4998C55.2609 11.493 43.1124 0.138184 28.1265 0.138184C13.1406 0.138184 0.992188 11.493 0.992188 25.4998C0.992188 39.5067 13.1406 50.8615 28.1265 50.8615Z" fill="black"/>
<path d="M13.6599 14.6304L24.1362 27.453L13.5938 37.8785H15.9664L25.1964 28.751L32.6537 37.8785H40.7281L29.6623 24.3345L39.4753 14.6304H37.1026L28.6023 23.0367L21.7342 14.6304H13.6599ZM17.1491 16.2302H20.8584L37.2384 36.2783H33.529L17.1491 16.2302Z" fill="white"/>
</g>
<defs>
<clipPath id="clip0_0_2919">
<rect width="56.2069" height="50.7233" fill="white" transform="translate(0.0234375 0.138184)"/>
</clipPath>
</defs>
</svg>
