<svg version="1.1" id="Capa_1" xmlns="http://www.w3.org/2000/svg" xmlns:xlink="http://www.w3.org/1999/xlink" x="0px" y="0px" viewBox="0 0 504.99 504.99" style="enable-background:new 0 0 504.99 504.99;" xml:space="preserve" width="300" height="300" xmlns:svgjs="http://svgjs.dev/svgjs"><g width="100%" height="100%" transform="matrix(1,0,0,1,0,0)"><g>
	<g>
		<path style="stroke-linecap: round; stroke-linejoin: round; stroke-miterlimit: 10;" d="&#10;&#9;&#9;&#9;M75.34,270.866h23.37c35.12,0,57.87-18.56,70.16-32.82c8.8-10.22,21.62-16.1,35.12-16.1h40.99c2.77,0,5,2.24,5,5v18.04v172.7&#10;&#9;&#9;&#9;c0,2.76-2.23,5-5,5h-41.09c-13.45,0-26.24-5.82-35.04-15.99c-12.34-14.27-35.16-32.93-70.14-32.93H26.38&#10;&#9;&#9;&#9;c-10.44,0-18.88-8.46-18.88-18.88v-65.14c0-10.42,8.44-18.88,18.88-18.88h13.96" fill="none" fill-opacity="1" stroke="#ffffff" stroke-opacity="1" data-original-stroke-color="#000000ff" stroke-width="15" data-original-stroke-width="15"/>
		<path style="stroke-linecap: round; stroke-linejoin: round; stroke-miterlimit: 10;" d="&#10;&#9;&#9;&#9;M48.403,376.644v55.476c0.001,10.888,4.675,18.566,11.092,25.047c4.015,2.713,8.856,4.297,14.066,4.297h0&#10;&#9;&#9;&#9;c13.894,0,25.158-11.263,25.158-25.158v-59.662" fill="none" fill-opacity="1" stroke="#ffffff" stroke-opacity="1" data-original-stroke-color="#000000ff" stroke-width="15" data-original-stroke-width="15"/>
		
			<line style="stroke-linecap: round; stroke-linejoin: round; stroke-miterlimit: 10;" x1="98.718" y1="275.434" x2="98.718" y2="373.752" fill="none" fill-opacity="1" stroke="#ffffff" stroke-opacity="1" data-original-stroke-color="#000000ff" stroke-width="15" data-original-stroke-width="15"/>
		<path style="stroke-linecap: round; stroke-linejoin: round; stroke-miterlimit: 10;" d="&#10;&#9;&#9;&#9;M254.903,284.514h7.239c21.439,0,38.819,17.38,38.819,38.819v0c0,21.439-17.38,38.819-38.819,38.819h-8.954" fill="none" fill-opacity="1" stroke="#ffffff" stroke-opacity="1" data-original-stroke-color="#000000ff" stroke-width="15" data-original-stroke-width="15"/>
		
			<line style="stroke-linecap: round; stroke-linejoin: round; stroke-miterlimit: 10;" x1="189.48" y1="417.606" x2="189.48" y2="379.656" fill="none" fill-opacity="1" stroke="#ffffff" stroke-opacity="1" data-original-stroke-color="#000000ff" stroke-width="15" data-original-stroke-width="15"/>
		
			<line style="stroke-linecap: round; stroke-linejoin: round; stroke-miterlimit: 10;" x1="189.48" y1="344.656" x2="189.48" y2="231.486" fill="none" fill-opacity="1" stroke="#ffffff" stroke-opacity="1" data-original-stroke-color="#000000ff" stroke-width="15" data-original-stroke-width="15"/>
	</g>
	<path style="stroke-linecap: round; stroke-linejoin: round; stroke-miterlimit: 10;" d="&#10;&#9;&#9;M353.11,261.066c-10.13-3.22-19.64-7.85-28.28-13.66c-0.59-0.4-1.33-0.53-2.01-0.34l-34.28,9.18c-1.84,0.49-3.51-1.18-3.02-3.02&#10;&#9;&#9;l9.18-34.27c0.19-0.69,0.06-1.42-0.34-2.02c-11.9-17.71-18.86-39.03-18.87-61.97c-0.03-61.21,48.75-110.67,109.96-111.43&#10;&#9;&#9;c57.75-0.72,105.55,42.52,112.04,98.37" fill="none" fill-opacity="1" stroke="#ffffff" stroke-opacity="1" data-original-stroke-color="#000000ff" stroke-width="15" data-original-stroke-width="15"/>
	<path style="stroke-linecap: round; stroke-linejoin: round; stroke-miterlimit: 10;" d="&#10;&#9;&#9;M447.34,248.566c24.8-15.99,42.78-41.58,48.74-71.66" fill="none" fill-opacity="1" stroke="#ffffff" stroke-opacity="1" data-original-stroke-color="#000000ff" stroke-width="15" data-original-stroke-width="15"/>
	<path style="stroke-linecap: round; stroke-linejoin: round; stroke-miterlimit: 10;" d="&#10;&#9;&#9;M111.612,127.382c0.438,35.253,28.924,63.352,64.18,63.332c13.214-0.008,25.491-4.014,35.694-10.87&#10;&#9;&#9;c0.341-0.229,0.762-0.302,1.158-0.196l19.743,5.29c1.056,0.283,2.022-0.683,1.739-1.739l-5.29-19.743&#10;&#9;&#9;c-0.106-0.396-0.033-0.818,0.196-1.158c6.856-10.202,10.862-22.48,10.87-35.694c0.02-35.256-28.079-63.742-63.332-64.179&#10;&#9;&#9;C140.495,61.977,111.164,91.309,111.612,127.382z" fill="none" fill-opacity="1" stroke="#ffffff" stroke-opacity="1" data-original-stroke-color="#000000ff" stroke-width="15" data-original-stroke-width="15"/>
	<path style="stroke-linecap: round; stroke-linejoin: round; stroke-miterlimit: 10;" d="&#10;&#9;&#9;M462.27,329.376c12.2-24.27,8.01-54.67-12.56-74.73c-25.23-24.62-65.25-24.35-90.16,0.6c-9.34,9.35-15.19,20.86-17.55,32.92&#10;&#9;&#9;c-0.08,0.41-0.33,0.75-0.68,0.96l-17.71,10.22c-0.94,0.55-0.94,1.91,0,2.46l17.71,10.22c0.35,0.2,0.6,0.55,0.68,0.96&#10;&#9;&#9;c2.36,12.06,8.21,23.57,17.55,32.92c21.51,21.54,54.29,24.69,79.08,9.28" fill="none" fill-opacity="1" stroke="#ffffff" stroke-opacity="1" data-original-stroke-color="#000000ff" stroke-width="15" data-original-stroke-width="15"/>
	<g>
		<g>
			
				<line style="stroke-linecap: round; stroke-linejoin: round; stroke-miterlimit: 10;" x1="413.214" y1="159.404" x2="453.148" y2="204.932" fill="none" fill-opacity="1" stroke="#ffffff" stroke-opacity="1" data-original-stroke-color="#000000ff" stroke-width="15" data-original-stroke-width="15"/>
			
				<line style="stroke-linecap: round; stroke-linejoin: round; stroke-miterlimit: 10;" x1="401.81" y1="159.404" x2="401.81" y2="204.932" fill="none" fill-opacity="1" stroke="#ffffff" stroke-opacity="1" data-original-stroke-color="#000000ff" stroke-width="15" data-original-stroke-width="15"/>
			<path style="stroke-linecap: round; stroke-linejoin: round; stroke-miterlimit: 10;" d="&#10;&#9;&#9;&#9;&#9;M453.148,134.573c0,13.645-11.964,24.831-26.105,24.831H401.81v-49.538h25.234C441.184,109.866,453.148,120.928,453.148,134.573z&#10;&#9;&#9;&#9;&#9;" fill="none" fill-opacity="1" stroke="#ffffff" stroke-opacity="1" data-original-stroke-color="#000000ff" stroke-width="15" data-original-stroke-width="15"/>
		</g>
		<g>
			
				<line style="stroke-linecap: round; stroke-linejoin: round; stroke-miterlimit: 10;" x1="323.246" y1="163.6" x2="323.246" y2="204.932" fill="none" fill-opacity="1" stroke="#ffffff" stroke-opacity="1" data-original-stroke-color="#000000ff" stroke-width="15" data-original-stroke-width="15"/>
			<path style="stroke-linecap: round; stroke-linejoin: round; stroke-miterlimit: 10;" d="&#10;&#9;&#9;&#9;&#9;M377.019,136.694c0,14.816-12.537,26.907-27.353,26.907h-26.42v-53.734h26.42C364.483,109.866,377.019,121.877,377.019,136.694z" fill="none" fill-opacity="1" stroke="#ffffff" stroke-opacity="1" data-original-stroke-color="#000000ff" stroke-width="15" data-original-stroke-width="15"/>
		</g>
	</g>
	
		<polygon style="stroke-linecap: round; stroke-linejoin: round; stroke-miterlimit: 10;" points="&#10;&#9;&#9;176.754,95.788 187.329,112.674 206.656,117.513 193.865,132.789 195.235,152.666 176.754,145.221 158.273,152.666 &#10;&#9;&#9;159.642,132.789 146.851,117.513 166.178,112.674 &#9;" fill="none" fill-opacity="1" stroke="#ffffff" stroke-opacity="1" data-original-stroke-color="#000000ff" stroke-width="15" data-original-stroke-width="15"/>
	
		<polygon style="stroke-linecap: round; stroke-linejoin: round; stroke-miterlimit: 10;" points="&#10;&#9;&#9;405.737,271.136 416.312,288.022 435.639,292.862 422.848,308.137 424.218,328.014 405.737,320.569 387.256,328.014 &#10;&#9;&#9;388.626,308.137 375.834,292.862 395.161,288.022 &#9;" fill="none" fill-opacity="1" stroke="#ffffff" stroke-opacity="1" data-original-stroke-color="#000000ff" stroke-width="15" data-original-stroke-width="15"/>
</g><g>
</g><g>
</g><g>
</g><g>
</g><g>
</g><g>
</g><g>
</g><g>
</g><g>
</g><g>
</g><g>
</g><g>
</g><g>
</g><g>
</g><g>
</g></g></svg>