<svg version="1.1" id="svg5568" xml:space="preserve" width="300" height="300" viewBox="0 0 682.66669 682.66669" xmlns="http://www.w3.org/2000/svg" xmlns:svg="http://www.w3.org/2000/svg" xmlns:xlink="http://www.w3.org/1999/xlink" xmlns:svgjs="http://svgjs.dev/svgjs"><g width="100%" height="100%" transform="matrix(1,0,0,1,0,0)"><defs id="defs5572"><clipPath clipPathUnits="userSpaceOnUse" id="clipPath5582"><path d="M 0,512 H 512 V 0 H 0 Z" id="path5580" fill="#ffffff" fill-opacity="1" data-original-color="#000000ff" stroke="none" stroke-opacity="1"/></clipPath></defs><g id="g5574" transform="matrix(1.3333333,0,0,-1.3333333,0,682.66667)"><g id="g5576"><g id="g5578" clip-path="url(#clipPath5582)"><g id="g5584" transform="translate(501.7812,10)"><path d="m 0,0 h 0.135 m -40.414,0 h -205.418 c -135.862,0 -246,110.138 -246,246 0,135.862 110.138,246 246,246 64.287,0 122.814,-24.66 166.639,-65.036" style="stroke-linecap: round; stroke-linejoin: round; stroke-miterlimit: 10; stroke-dasharray: none;" id="path5586" fill="none" fill-opacity="1" stroke="#ffffff" stroke-opacity="1" data-original-stroke-color="#000000ff" stroke-width="20" data-original-stroke-width="20"/></g><g id="g5588" transform="translate(102.9465,352.3303)"><path d="m 0,0 c -44.049,-69.884 -35.636,-163.355 25.238,-224.229 70.637,-70.637 185.162,-70.637 255.798,0 70.637,70.636 70.637,185.161 0,255.798 -60.964,60.964 -154.621,69.312 -224.539,25.042" style="stroke-linecap: round; stroke-linejoin: round; stroke-miterlimit: 10; stroke-dasharray: none;" id="path5590" fill="none" fill-opacity="1" stroke="#ffffff" stroke-opacity="1" data-original-stroke-color="#000000ff" stroke-width="20" data-original-stroke-width="20"/></g><g id="g5592" transform="translate(386.1619,435.2109)"><path d="M 0,0 H 37.974 V 37.974" style="stroke-linecap: round; stroke-linejoin: round; stroke-miterlimit: 10; stroke-dasharray: none;" id="path5594" fill="none" fill-opacity="1" stroke="#ffffff" stroke-opacity="1" data-original-stroke-color="#000000ff" stroke-width="20" data-original-stroke-width="20"/></g><g id="g5596" transform="translate(130.4269,273.0279)"><path d="m 0,0 c 0,10.464 8.483,18.948 18.948,18.948 v 0 C 29.412,18.948 37.895,13.041 37.895,0 37.895,-24.998 0,-52.862 0,-52.862 h 37.895" style="stroke-linecap: round; stroke-linejoin: round; stroke-miterlimit: 10; stroke-dasharray: none;" id="path5598" fill="none" fill-opacity="1" stroke="#ffffff" stroke-opacity="1" data-original-stroke-color="#000000ff" stroke-width="20" data-original-stroke-width="20"/></g><g id="g5600" transform="translate(233.8828,220.0246)"><path d="M 0,0 V 71.951" style="stroke-linecap: round; stroke-linejoin: round; stroke-miterlimit: 10; stroke-dasharray: none;" id="path5602" fill="none" fill-opacity="1" stroke="#ffffff" stroke-opacity="1" data-original-stroke-color="#000000ff" stroke-width="20" data-original-stroke-width="20"/></g><g id="g5604" transform="translate(199.3912,291.9754)"><path d="M 0,0 V -35.936 H 32.065" style="stroke-linecap: round; stroke-linejoin: round; stroke-miterlimit: 10; stroke-dasharray: none;" id="path5606" fill="none" fill-opacity="1" stroke="#ffffff" stroke-opacity="1" data-original-stroke-color="#000000ff" stroke-width="20" data-original-stroke-width="20"/></g><g id="g5608" transform="translate(275.1596,220.1661)"><path d="M 0,0 32.711,71.809" style="stroke-linecap: round; stroke-linejoin: round; stroke-miterlimit: 10; stroke-dasharray: none;" id="path5610" fill="none" fill-opacity="1" stroke="#ffffff" stroke-opacity="1" data-original-stroke-color="#000000ff" stroke-width="20" data-original-stroke-width="20"/></g><g id="g5612" transform="translate(338.6554,291.9754)"><path d="M 0,0 H 43.086 L 21.543,-71.809" style="stroke-linecap: round; stroke-linejoin: round; stroke-miterlimit: 10; stroke-dasharray: none;" id="path5614" fill="none" fill-opacity="1" stroke="#ffffff" stroke-opacity="1" data-original-stroke-color="#000000ff" stroke-width="20" data-original-stroke-width="20"/></g><g id="g5616" transform="translate(128.185,383.899)"><path d="M 0,0 V 0" style="stroke-linecap: round; stroke-linejoin: round; stroke-miterlimit: 10; stroke-dasharray: none;" id="path5618" fill="none" fill-opacity="1" stroke="#ffffff" stroke-opacity="1" data-original-stroke-color="#000000ff" stroke-width="20" data-original-stroke-width="20"/></g></g></g></g></g></svg>