<svg xmlns="http://www.w3.org/2000/svg" viewBox="0 0 512 512" width="300" height="300" version="1.1" xmlns:xlink="http://www.w3.org/1999/xlink" xmlns:svgjs="http://svgjs.dev/svgjs"><g width="100%" height="100%" transform="matrix(1,0,0,1,0,0)"><g id="OUTLINE"><path d="M224,328a24.02718,24.02718,0,0,0,24-24V288a8.00008,8.00008,0,0,0-8-8H164l-19.085-25.44678,5.44336-16.32959A31.96117,31.96117,0,0,0,152,228.10547V200a32,32,0,0,0-64,0v24.7334a31.8904,31.8904,0,0,0,5.375,17.75049l6.94141,10.41357L56.459,274.82617A23.95631,23.95631,0,0,0,44.2041,303.189L61.24805,360H24a8.00008,8.00008,0,0,0-8,8v64a8.00008,8.00008,0,0,0,8,8H82.21411l-25.1604,44.03076A8.00055,8.00055,0,0,0,64,496H94.71484a24.05316,24.05316,0,0,0,20.83789-12.09277l27.39356-47.938A8.00423,8.00423,0,0,0,144,432V411.314l21.65625,21.65625A7.94677,7.94677,0,0,1,168,438.62744V472a24.02718,24.02718,0,0,0,24,24h16a8.00008,8.00008,0,0,0,8-8V422.62744a23.84254,23.84254,0,0,0-7.0293-16.9707L160,356.686V328ZM32,376H96v16H32Zm0,48V408H96v16Zm114.34277-58.34326,51.31348,51.31347A7.94677,7.94677,0,0,1,200,422.62744V480h-8a8.00917,8.00917,0,0,1-8-8V438.62744a23.84254,23.84254,0,0,0-7.0293-16.9707l-43.31347-43.31348-11.31446,11.31348L128,395.314v34.56153l-26.33984,46.09375A8.01692,8.01692,0,0,1,94.71484,480H77.78516l22.85791-40H104a8.00008,8.00008,0,0,0,8-8V368a8.00008,8.00008,0,0,0-8-8h-1.80908a24.12473,24.12473,0,0,0,5.01025-23.69434L95.58984,301.47021l-15.17968,5.05958,11.6123,34.83593a8.03824,8.03824,0,0,1-4.01269,9.68506l-11.08008,5.54L59.5293,298.59131a7.98535,7.98535,0,0,1,4.08593-9.45459l51.96289-25.98145a7.99907,7.99907,0,0,0,3.07813-11.59277L106.6875,233.60791A15.93894,15.93894,0,0,1,104,224.7334V200a16,16,0,0,1,32,0v28.10547a15.96819,15.96819,0,0,1-.82129,5.05957l-6.76855,20.30517a7.9995,7.9995,0,0,0,1.18945,7.32959l24,32A8.0009,8.0009,0,0,0,160,296h72v8a8.00917,8.00917,0,0,1-8,8H152a8.00008,8.00008,0,0,0-8,8v40A8.00035,8.00035,0,0,0,146.34277,365.65674Z" fill="#ffffff" fill-opacity="1" data-original-color="#000000ff" stroke="none" stroke-opacity="1"/><path d="M488,360H450.752l17.043-56.811a23.95468,23.95468,0,0,0-12.2539-28.36279l-43.85743-21.92871,6.94141-10.4126A31.89586,31.89586,0,0,0,424,224.7334V200a32,32,0,0,0-64,0v28.10547a31.97165,31.97165,0,0,0,1.6416,10.11914l5.44336,16.32861L348,280H272a8.00008,8.00008,0,0,0-8,8v16a24.02718,24.02718,0,0,0,24,24h64v28.686l-48.9707,48.9707A23.84254,23.84254,0,0,0,296,422.62744V488a8.00008,8.00008,0,0,0,8,8h16a24.02718,24.02718,0,0,0,24-24V438.62744a7.94677,7.94677,0,0,1,2.34375-5.65723L368,411.314V432a8.00423,8.00423,0,0,0,1.05371,3.96924l27.39356,47.9375A24.05259,24.05259,0,0,0,417.28516,496H448a8.00055,8.00055,0,0,0,6.94629-11.96924L429.78564,440H488a8.00008,8.00008,0,0,0,8-8V368A8.00008,8.00008,0,0,0,488,360ZM434.21484,480H417.28516a8.01636,8.01636,0,0,1-6.94532-4.03125L384,429.87549V395.314l5.65723-5.65722-11.31446-11.31348L335.0293,421.65674A23.84254,23.84254,0,0,0,328,438.62744V472a8.00917,8.00917,0,0,1-8,8h-8V422.62744a7.94677,7.94677,0,0,1,2.34375-5.65723l51.31348-51.31347A8.00035,8.00035,0,0,0,368,360V320a8.00008,8.00008,0,0,0-8-8H288a8.00917,8.00917,0,0,1-8-8v-8h72a8.0009,8.0009,0,0,0,6.40039-3.2002l24-32a7.9995,7.9995,0,0,0,1.18945-7.32959L376.82129,233.166A15.97866,15.97866,0,0,1,376,228.10547V200a16,16,0,0,1,32,0v24.7334a15.94445,15.94445,0,0,1-2.6875,8.87549L393.34375,251.5625a7.99907,7.99907,0,0,0,3.07813,11.59277l51.96289,25.98145a7.98374,7.98374,0,0,1,4.085,9.45459l-17.39942,57.99951-11.08008-5.54a8.03706,8.03706,0,0,1-4.01171-9.68555l11.61132-34.83544-15.17968-5.05958-11.61036,34.835A24.12336,24.12336,0,0,0,409.80908,360H408a8.00008,8.00008,0,0,0-8,8v64a8.00008,8.00008,0,0,0,8,8h3.35693ZM480,424H416V408h64Zm0-32H416V376h64Z" fill="#ffffff" fill-opacity="1" data-original-color="#000000ff" stroke="none" stroke-opacity="1"/><path d="M184,192h16a56,56,0,0,0,112,0h16a24.0275,24.0275,0,0,0,24-24V56a24.0275,24.0275,0,0,0-24-24H312V16H296V32H216V16H200V32H184a24.0275,24.0275,0,0,0-24,24V168A24.0275,24.0275,0,0,0,184,192Zm72,40a40,40,0,1,1,40-40A40.04552,40.04552,0,0,1,256,232ZM176,56a8.00917,8.00917,0,0,1,8-8h16v8h16V48h80v8h16V48h16a8.00917,8.00917,0,0,1,8,8V72H176Zm0,32H336v80a8.00917,8.00917,0,0,1-8,8H309.65869a55.99069,55.99069,0,0,0-107.31738,0H184a8.00917,8.00917,0,0,1-8-8Z" fill="#ffffff" fill-opacity="1" data-original-color="#000000ff" stroke="none" stroke-opacity="1"/><path d="M248,188.68652l-13.65723,13.65674,11.31446,11.31348,16-16A8.00035,8.00035,0,0,0,264,192V168H248Z" fill="#ffffff" fill-opacity="1" data-original-color="#000000ff" stroke="none" stroke-opacity="1"/><path d="M232.91309,454.68262l-1.82618,15.8955a218.965,218.965,0,0,0,49.82618,0l-1.82618-15.8955A203.93287,203.93287,0,0,1,232.91309,454.68262Z" fill="#ffffff" fill-opacity="1" data-original-color="#000000ff" stroke="none" stroke-opacity="1"/><path d="M456,256h16A215.25547,215.25547,0,0,0,372.31348,73.96094l-8.627,13.47461A199.32727,199.32727,0,0,1,456,256Z" fill="#ffffff" fill-opacity="1" data-original-color="#000000ff" stroke="none" stroke-opacity="1"/><path d="M148.31348,87.43555l-8.627-13.47461A215.25547,215.25547,0,0,0,40,256H56A199.32727,199.32727,0,0,1,148.31348,87.43555Z" fill="#ffffff" fill-opacity="1" data-original-color="#000000ff" stroke="none" stroke-opacity="1"/><rect x="200" y="104" width="16" height="16" fill="#ffffff" fill-opacity="1" data-original-color="#000000ff" stroke="none" stroke-opacity="1"/><rect x="232" y="104" width="16" height="16" fill="#ffffff" fill-opacity="1" data-original-color="#000000ff" stroke="none" stroke-opacity="1"/><rect x="264" y="104" width="16" height="16" fill="#ffffff" fill-opacity="1" data-original-color="#000000ff" stroke="none" stroke-opacity="1"/><rect x="296" y="104" width="16" height="16" fill="#ffffff" fill-opacity="1" data-original-color="#000000ff" stroke="none" stroke-opacity="1"/></g></g></svg>