<svg xmlns="http://www.w3.org/2000/svg" id="Layer_1" data-name="Layer 1" viewBox="0 0 512 512" width="300" height="300" version="1.1" xmlns:xlink="http://www.w3.org/1999/xlink" xmlns:svgjs="http://svgjs.dev/svgjs"><g width="100%" height="100%" transform="matrix(1,0,0,1,0,0)"><path d="M504,375.554H467.06v-163.3a8,8,0,0,0-8-8H413.842a8,8,0,0,0-8,8v163.3h-10.3V273.093a8,8,0,0,0-8-8H372.934v-49.7l63.437-68.349v16.4a8,8,0,0,0,16,0v-35a8,8,0,0,0-8-8h-35a8,8,0,0,0,0,16h15.008l-51.444,55.427V81.084a36.867,36.867,0,0,0-36.826-36.825H74.194A36.867,36.867,0,0,0,37.369,81.084v20.278H29.1a29.1,29.1,0,1,0,0,58.205h8.266V226.9H29.1a29.1,29.1,0,0,0,0,58.206h8.266v67.33H29.1a29.1,29.1,0,1,0,0,58.2h8.266v20.278a36.867,36.867,0,0,0,36.825,36.825H336.108a36.867,36.867,0,0,0,36.826-36.825V391.554H504a8,8,0,0,0,0-16Zm-82.158-155.3H451.06v155.3H421.842Zm-42.3,155.3H350.324V281.093h29.218ZM16,130.464a13.118,13.118,0,0,1,13.1-13.1H61.637a13.1,13.1,0,0,1,0,26.205H29.1A13.118,13.118,0,0,1,16,130.464ZM16,256a13.118,13.118,0,0,1,13.1-13.1H61.637a13.1,13.1,0,0,1,0,26.206H29.1A13.118,13.118,0,0,1,16,256Zm0,125.536a13.118,13.118,0,0,1,13.1-13.1H61.637a13.1,13.1,0,0,1,0,26.2H29.1A13.118,13.118,0,0,1,16,381.536Zm37.369,49.38V410.638h8.268a29.1,29.1,0,0,0,0-58.2H53.369V285.1h8.268a29.1,29.1,0,0,0,0-58.206H53.369v-67.33h8.268a29.1,29.1,0,0,0,0-58.205H53.369V81.084A20.849,20.849,0,0,1,74.194,60.259h46.99V451.741H74.194A20.849,20.849,0,0,1,53.369,430.916Zm303.565,0a20.849,20.849,0,0,1-20.826,20.825H137.184V60.259H336.108a20.849,20.849,0,0,1,20.826,20.825V197.043l-58.986-40.552a8,8,0,0,0-10.253,1l-71.517,73.161a8,8,0,1,0,11.441,11.185l66.812-68.347,62.5,42.97v48.633h-14.61a8,8,0,0,0-8,8V375.554h-10.3V237.65a8,8,0,0,0-8-8H270.807a8,8,0,0,0-8,8v137.9h-10.3V297.086a8,8,0,0,0-8-8H199.289a8,8,0,0,0-8,8v78.468h-36.94a8,8,0,0,0,0,16H356.934Zm-48.91-55.362H278.807V245.65h29.217Zm-71.517,0H207.289V305.086h29.218Z" fill="#ffffff" fill-opacity="1" data-original-color="#000000ff" stroke="none" stroke-opacity="1"/></g></svg>