<svg id="Layer_1" viewBox="0 0 512 512" xmlns="http://www.w3.org/2000/svg" xmlns:xlink="http://www.w3.org/1999/xlink" data-name="Layer 1" width="300" height="300" version="1.1" xmlns:svgjs="http://svgjs.dev/svgjs"><g width="100%" height="100%" transform="matrix(1,0,0,1,0,0)"><linearGradient id="linear-gradient" gradientUnits="userSpaceOnUse" x1="49.481" x2="462.519" y1="256" y2="256"><stop offset=".016" stop-color="#e65233"/><stop offset="1" stop-color="#f9a82d"/></linearGradient><path d="m368.875 469.596h-224.081v13.646h224.081zm-61.985-12.759c-12.869-9.99-21.539-24.906-23.297-41.689h-53.516c-1.758 16.783-10.429 31.699-23.298 41.689zm-10.448-41.689c3.148 23.569 23.484 41.688 47.608 41.688s29.568.001 29.568.001c2.189 0 4.191.905 5.654 2.363l.013-.013c1.45 1.45 2.35 3.455 2.35 5.667v23.13c0 2.211-.9 4.217-2.35 5.667l-.013-.013c-1.463 1.458-3.465 2.363-5.654 2.363h-233.566c-4.422 0-8.016-3.595-8.016-8.017v-23.13c0-4.422 3.595-8.017 8.016-8.017h29.568c24.124-.001 44.46-18.121 47.608-41.689h-143.525c-13.334 0-24.222-10.886-24.222-24.221v-252.016c0-13.334 10.887-24.222 24.222-24.222h73.932c2.146-4.821 4.611-9.483 7.369-13.958l-14.878-22.444c-1.7-2.569-1.293-5.92.806-8.015l-.008-.008 24.065-24.066c2.285-2.285 5.874-2.474 8.375-.565l22.581 14.97c10.127-5.968 21.106-10.408 32.564-13.138l5.338-26.331c.604-3.022 3.261-5.111 6.23-5.108v-.025h34.033c3.289 0 5.996 2.489 6.342 5.685l5.346 26.372c11.472 2.966 22.271 7.586 32.294 13.764l22.441-14.877c2.569-1.7 5.92-1.293 8.015.806l.008-.008 24.066 24.065c2.285 2.285 2.474 5.874.565 8.375l-14.972 22.585c2.269 3.851 4.323 7.83 6.145 11.922h73.937c13.334 0 24.222 10.887 24.222 24.222v252.016c0 13.335-10.888 24.221-24.222 24.221h-141.856zm153.319-39.598h-387.521v15.377c0 6.291 5.171 11.462 11.463 11.462h364.594c6.292 0 11.463-5.171 11.463-11.462v-15.377zm-230.649-167.428v-73.87c0-3.523 2.856-6.379 6.379-6.379h61.019c3.523 0 6.379 2.856 6.379 6.379v73.87c26.756-21.824 28.929-62.069 4.403-86.594-22.804-22.804-59.78-22.804-82.584 0-24.526 24.526-22.352 64.772 4.403 86.594zm0 53.91v-38.386c-39.331-23.902-46.142-78.42-13.424-111.138 27.788-27.788 72.838-27.788 100.625 0 32.718 32.719 25.908 87.236-13.424 111.139v38.386c5.984-2.222 14.568-6.287 19.552-9.677 2.088-1.526 4.989-1.68 7.271-.168l21.957 14.556 16.708-16.709-14.282-21.543.005-.003c-1.372-2.074-1.45-4.854.02-7.049 7.163-10.718 12.399-22.955 15.203-35.613.528-2.383 2.412-4.35 4.959-4.859l25.803-5.23v-23.645s-24.782-5.023-24.782-5.023c-2.69-.298-4.996-2.299-5.553-5.094-1.295-6.486-3.161-12.712-5.54-18.624-2.402-5.969-5.313-11.645-8.677-16.969-1.526-2.088-1.679-4.988-.168-7.271l14.556-21.957-16.709-16.708-21.544 14.282-.003-.005c-2.074 1.372-4.854 1.45-7.049-.02-10.716-7.162-22.956-12.4-35.613-15.204-2.383-.528-4.35-2.412-4.859-4.959l-5.225-25.777h-23.655l-5.018 24.753c-.298 2.69-2.299 4.996-5.094 5.552-6.488 1.296-12.717 3.162-18.631 5.542-5.968 2.401-11.643 5.312-16.966 8.676-2.088 1.526-4.989 1.68-7.272.169l-21.954-14.553-16.708 16.709 14.283 21.547-.005.003c1.372 2.074 1.45 4.854-.02 7.049-7.159 10.712-12.4 22.959-15.204 35.61-.528 2.383-2.412 4.35-4.959 4.859l-25.803 5.23v23.645s24.782 5.023 24.782 5.023c2.69.298 4.996 2.299 5.552 5.094 1.295 6.486 3.161 12.712 5.54 18.624 2.402 5.969 5.313 11.644 8.676 16.969 1.526 2.088 1.679 4.988.168 7.271l-14.556 21.957 16.709 16.708 21.543-14.282.003.005c2.074-1.372 4.854-1.45 7.049.02 6.686 4.468 14.11 8.258 21.729 11.092zm0 16.579v-3.094c-8.864-2.9-17.278-6.812-25.203-11.699l-22.44 14.876c-2.569 1.701-5.92 1.293-8.015-.806l-.009.008-24.065-24.065c-2.285-2.285-2.474-5.874-.565-8.375l14.972-22.585c-5.967-10.127-10.407-21.102-13.136-32.559l-26.334-5.338c-3.022-.604-5.111-3.261-5.108-6.23v-34.033c0-3.132 2.266-5.735 5.248-6.258l26.785-5.429c.486-1.879 1.016-3.738 1.588-5.575h-69.126c-6.292 0-11.463 5.171-11.463 11.463v223.88h387.52v-223.88c0-6.291-5.172-11.463-11.463-11.463h-69.117c.813 2.596 1.538 5.223 2.171 7.879l26.334 5.338c3.022.604 5.111 3.261 5.108 6.23v34.033c0 3.132-2.266 5.735-5.248 6.258l-26.783 5.429c-2.966 11.472-7.586 22.271-13.764 32.295l14.877 22.441c1.701 2.569 1.293 5.92-.806 8.015l.008.008-24.065 24.066c-2.285 2.285-5.874 2.474-8.375.565l-22.585-14.972c-7.319 4.313-15.084 7.827-23.163 10.476v3.1h24.13v.012c5.769.002 8.595 7.152 4.286 11.077l-61.018 55.635c-2.401 2.19-6.121 2.231-8.572 0l-60.745-55.385c-4.813-4.138-1.715-11.339 4.013-11.339h24.13zm12.759-137.979v144.359c0 3.523-2.856 6.379-6.379 6.379h-14.061l44.57 40.638 44.57-40.638h-14.061c-3.523 0-6.379-2.856-6.379-6.379v-144.359z" fill="#ffffff" fill-rule="evenodd" data-original-color="linear-gradient" stroke="none" stroke-opacity="1" fill-opacity="1"/></g></svg>