<?xml version="1.0" encoding="utf-8"?>
<!-- Generator: Adobe Illustrator 25.0.0, SVG Export Plug-In . SVG Version: 6.00 Build 0)  -->
<svg version="1.1" id="Glyph" xmlns="http://www.w3.org/2000/svg" xmlns:xlink="http://www.w3.org/1999/xlink" x="0px" y="0px"
	 viewBox="0 0 64 64" style="enable-background:new 0 0 64 64;" xml:space="preserve">
<style type="text/css">
	.st0{fill:none;stroke:#FFFFFF;stroke-miterlimit:10;}
</style>
<path class="st0" d="M44,23v4.5c0,2-0.7,3.9-2,5.4V27c0-3.9-3.1-7-7-7h-6c-3.9,0-7,3.1-7,7v5.9c-1.3-1.5-2-3.4-2-5.4V23c0-5,4-9,9-9
	h6c2.4,0,4.5,1.8,4.9,4.1C42.2,18.5,44,20.6,44,23z"/>
<path class="st0" d="M40,27v6c0,0.6-0.1,1.1-0.2,1.7c-0.5,2.2-1.9,4.1-3.8,5.2c-0.6,0.4-1.3,0.6-2,0.8c-0.6,0.2-1.3,0.2-2,0.2
	s-1.4-0.1-2-0.2c-0.7-0.2-1.4-0.5-2-0.8c-1.9-1.1-3.3-3-3.8-5.2C24.1,34.1,24,33.6,24,33v-6c0-2.8,2.2-5,5-5h6
	C37.8,22,40,24.2,40,27z"/>
<path class="st0" d="M36,42.2v1.4c0,0.1,0,0.3-0.1,0.4c-0.7,1.6-2.2,2.6-3.9,2.6s-3.3-1-3.9-2.6c0-0.1-0.1-0.2-0.1-0.4v-1.4
	c0.5,0.2,1,0.4,1.5,0.5c0.8,0.2,1.7,0.3,2.5,0.3s1.7-0.1,2.5-0.3C35,42.5,35.5,42.4,36,42.2z"/>
<path class="st0" d="M47,52.1V53H17v-0.9c0-2.9,1.7-5.4,4.4-6.5l4.6-1.8c0,0.4,0.1,0.7,0.2,1c0.1,0.3,0.3,0.6,0.4,0.9
	c1.1,1.8,3.1,3,5.3,3s4.2-1.1,5.3-3c0.2-0.3,0.3-0.6,0.4-0.9c0.1-0.3,0.2-0.7,0.2-1l4.6,1.8C45.3,46.6,47,49.2,47,52.1z"/>
<path class="st0" d="M10,55h44c1.1,0,2,0.9,2,2v1c0,1.1-0.9,2-2,2H10c-1.1,0-2-0.9-2-2v-1C8,55.9,8.9,55,10,55z"/>
<path class="st0" d="M52,45.7V53h-2v-7.3c0-0.8-0.3-1.6-0.9-2.1l-1.1-1.1c-0.5,0.3-1.1,0.4-1.7,0.4c-0.9,0-1.8-0.4-2.5-1
	c-0.7-0.7-1-1.5-1-2.5c0-0.9,0.4-1.8,1-2.5c0.7-0.7,1.6-1,2.5-1c0.9,0,1.8,0.3,2.5,1c0.7,0.7,1,1.5,1,2.5c0,0.6-0.2,1.2-0.4,1.7
	l1.1,1.1C51.5,43.1,52,44.3,52,45.7L52,45.7z"/>
<path class="st0" d="M60,7v16c0,1.6-1.3,3-3,3h-0.6l-5.7,5.7C50.5,31.9,50.3,32,50,32c-0.1,0-0.3,0-0.4-0.1C49.2,31.8,49,31.4,49,31
	v-5h-3v-3c0-2.9-1.8-5.5-4.5-6.5c-1-2.6-3.6-4.5-6.5-4.5h-5V7c0-1.7,1.3-3,3-3h24C58.7,4,60,5.3,60,7z"/>
<path class="st0" d="M24.9,40H15v5c0,0.4-0.2,0.8-0.6,0.9C14.3,46,14.1,46,14,46c-0.3,0-0.5-0.1-0.7-0.3L7.6,40H7c-1.7,0-3-1.4-3-3
	V21c0-1.7,1.3-3,3-3h12.2c-0.3,0.6-0.6,1.3-0.8,2c-0.3,1-0.4,2-0.4,3v4.5c0,3.4,1.7,6.5,4.5,8.4c0.2,0.7,0.5,1.4,0.9,2.1
	C23.8,38.7,24.3,39.4,24.9,40z"/>
</svg>
