<svg id="Layer_1" enable-background="new 0 0 512 512" height="300" viewBox="0 0 512 512" width="300" xmlns="http://www.w3.org/2000/svg" version="1.1" xmlns:xlink="http://www.w3.org/1999/xlink" xmlns:svgjs="http://svgjs.dev/svgjs"><g width="100%" height="100%" transform="matrix(1,0,0,1,0,0)"><path d="m345.75 231.73c20.18-22.28 31.29-51.12 31.29-81.21 0-66.76-54.3-121.07-121.04-121.07s-121.04 54.32-121.04 121.07c0 26.52 8.42 51.69 24.35 72.81 6.42 8.51 13.99 16.12 22.37 22.65.39.38.82.72 1.29 1.02 9.82 7.43 20.75 13.36 32.32 17.51v61.27l-5.1-8.84c-5.89-10.16-18.1-13.57-29.03-8.1-.15.07-.29.15-.43.23-4.97 2.88-8.53 7.53-10.02 13.1-1.5 5.58-.73 11.39 2.14 16.36l36.99 64.05c3.77 6.56 5.46 12.84 5.46 20.36v6.21h-5.02c-6.46 0-11.71 5.25-11.71 11.71v29.99c0 6.46 5.25 11.71 11.71 11.71h120.08c6.44 0 11.68-5.25 11.68-11.71v-29.99c0-6.46-5.24-11.71-11.68-11.71h-1.07l6.25-15.18c2.97-7.19 4.29-13.85 4.29-21.62v-87.79c0-11.89-9.68-21.57-21.57-21.57-2.53 0-4.96.44-7.22 1.25-3.26-7.78-10.96-13.26-19.91-13.26-2.07 0-4.07.29-5.97.84-.24-1.23-.58-2.42-1.01-3.56 23.59-5.63 45.07-18.28 61.6-36.53zm-194.8-81.21c0-57.94 47.13-105.08 105.05-105.08s105.05 47.14 105.05 105.08c0 29.64-12.2 56.56-32.09 75.72-9.51-26.43-28.7-46.14-51.66-53.79 12.49-7.34 20.9-20.91 20.9-36.41 0-23.27-18.93-42.21-42.21-42.21-23.26 0-42.18 18.93-42.18 42.21 0 15.5 8.4 29.07 20.88 36.41-22.89 7.63-42.03 27.25-51.57 53.55-19.99-19.43-32.17-46.54-32.17-75.48zm105.05 11.74c-14.44 0-26.19-11.76-26.19-26.22s11.75-26.22 26.19-26.22c14.46 0 26.22 11.76 26.22 26.22s-11.76 26.22-26.22 26.22zm-59.63 74.65c8.99-30.85 32.91-51.98 59.63-51.98 26.77 0 50.74 21.21 59.68 52.16-13.65 9.4-29.71 15.66-47.21 17.72-1.45-.31-2.94-.49-4.48-.49-1.93 0-3.8.25-5.58.73v-14.62c0-11.89-9.67-21.57-21.54-21.57-11.89 0-21.57 9.68-21.57 21.57v6.92c-6.72-2.83-13.05-6.34-18.93-10.44zm129.67 229.65h-111.48v-21.43h102.74.04.03 8.68v21.43zm-34.92-179.61c3.03 0 5.58 2.56 5.58 5.58v59.19c0 4.42 3.58 7.99 7.99 7.99s7.99-3.58 7.99-7.99v-47.17c0-3.03 2.54-5.58 5.56-5.58 3.08 0 5.58 2.51 5.58 5.58v87.79c0 5.65-.92 10.29-3.08 15.52l-8.76 21.27h-80.71v-6.21c0-10.33-2.41-19.34-7.59-28.35l-37-64.07c-.74-1.27-.93-2.77-.54-4.22.37-1.37 1.21-2.53 2.39-3.28 1.28-.59 5.49-2.1 7.81 1.92l20.01 34.67c1.81 3.13 5.5 4.66 8.99 3.72 3.5-.94 5.93-4.1 5.93-7.72v-96.9c0-.02 0-.04 0-.05v-18.22c0-3.08 2.5-5.58 5.58-5.58 3.06 0 5.56 2.51 5.56 5.58v89.09c0 4.42 3.58 7.99 7.99 7.99s7.99-3.58 7.99-7.99v-53.66c0-3.01 2.56-5.56 5.58-5.56 3.06 0 5.55 2.49 5.55 5.56v61.06c0 4.41 3.58 7.99 7.99 7.99s7.99-3.58 7.99-7.99v-44.39c.04-3.01 2.59-5.57 5.62-5.57zm215.35-47.12-9.06-2.94c-1.23-4.08-2.87-8.02-4.88-11.78l4.32-8.5c1.56-3.08.97-6.81-1.46-9.26l-12.09-12.12c-2.45-2.45-6.19-3.04-9.28-1.47l-8.5 4.33c-3.77-2-7.72-3.64-11.8-4.88l-2.94-9.08c-1.07-3.3-4.14-5.53-7.6-5.53h-17.09c-3.46 0-6.54 2.23-7.6 5.53l-2.94 9.08c-4.08 1.24-8.03 2.88-11.79 4.88l-8.51-4.33c-3.08-1.57-6.83-.98-9.28 1.47l-12.09 12.12c-2.44 2.45-3.03 6.2-1.45 9.28l4.32 8.46c-2.02 3.77-3.65 7.71-4.89 11.81l-9.06 2.94c-3.3 1.07-5.53 4.14-5.53 7.6v17.12c0 3.47 2.23 6.54 5.53 7.6l9.06 2.94c1.24 4.09 2.87 8.04 4.89 11.81l-4.32 8.46c-1.57 3.08-.99 6.82 1.45 9.28l12.09 12.12c2.45 2.45 6.19 3.04 9.28 1.47l8.52-4.34c3.75 2.01 7.69 3.64 11.78 4.89l2.94 9.08c1.07 3.3 4.14 5.53 7.6 5.53h17.09c3.47 0 6.54-2.23 7.6-5.53l2.94-9.08c4.08-1.25 8.03-2.88 11.79-4.89l8.51 4.34c3.09 1.57 6.83.98 9.28-1.47l12.09-12.12c2.43-2.45 3.02-6.18 1.46-9.26l-4.32-8.5c2.01-3.76 3.64-7.7 4.88-11.78l9.06-2.94c3.3-1.07 5.53-4.14 5.53-7.6v-17.12c0-3.48-2.24-6.55-5.53-7.62zm-10.46 18.92-7.68 2.49c-2.68.87-4.71 3.09-5.33 5.84-1.23 5.44-3.36 10.59-6.33 15.29-1.51 2.39-1.64 5.4-.36 7.91l3.66 7.18-3.88 3.89-7.15-3.67c-2.51-1.29-5.52-1.16-7.91.34-4.73 2.97-9.9 5.12-15.37 6.38-2.74.63-4.95 2.65-5.81 5.33l-2.49 7.68h-5.47l-2.49-7.68c-.87-2.67-3.07-4.7-5.81-5.33-5.48-1.26-10.63-3.4-15.33-6.37-2.39-1.51-5.4-1.64-7.91-.36l-7.2 3.68-3.86-3.87 3.67-7.22c1.27-2.51 1.13-5.5-.37-7.88-2.97-4.71-5.1-9.85-6.33-15.29-.62-2.75-2.65-4.98-5.33-5.85l-7.68-2.49v-5.5l7.68-2.49c2.69-.87 4.71-3.09 5.33-5.85 1.23-5.44 3.36-10.59 6.33-15.29 1.5-2.38 1.64-5.37.37-7.88l-3.67-7.22 3.86-3.87 7.23 3.67c2.5 1.26 5.48 1.13 7.85-.36 4.73-2.96 9.89-5.1 15.35-6.35 2.74-.63 4.95-2.65 5.81-5.33l2.49-7.68h5.47l2.49 7.68c.87 2.67 3.07 4.7 5.81 5.33 5.45 1.25 10.63 3.4 15.4 6.36 2.38 1.48 5.36 1.61 7.85.34l7.19-3.66 3.88 3.89-3.66 7.18c-1.29 2.51-1.15 5.52.36 7.91 2.97 4.71 5.1 9.85 6.33 15.29.62 2.75 2.65 4.97 5.33 5.84l7.68 2.49zm-61.37-36.94c-18.87 0-34.21 15.34-34.21 34.19s15.35 34.19 34.21 34.19c18.85 0 34.19-15.34 34.19-34.19s-15.34-34.19-34.19-34.19zm0 52.39c-10.05 0-18.23-8.16-18.23-18.2s8.18-18.2 18.23-18.2c10.03 0 18.2 8.16 18.2 18.2s-8.17 18.2-18.2 18.2zm-285.39-34.37-9.08-2.94c-1.25-4.09-2.88-8.03-4.89-11.78l4.33-8.48c1.57-3.08.99-6.82-1.45-9.28l-12.13-12.13c-2.45-2.44-6.2-3.03-9.28-1.45l-8.47 4.33c-3.76-2-7.7-3.64-11.79-4.88l-2.98-9.1c-1.08-3.28-4.14-5.5-7.6-5.5h-17.08c-3.47 0-6.54 2.23-7.6 5.53l-2.94 9.08c-4.08 1.24-8.03 2.88-11.79 4.88l-8.51-4.33c-3.08-1.57-6.83-.98-9.28 1.47l-12.09 12.12c-2.44 2.45-3.03 6.2-1.45 9.28l4.33 8.47c-2 3.76-3.64 7.7-4.88 11.79l-9.08 2.94c-3.3 1.07-5.53 4.14-5.53 7.6v17.12c0 3.47 2.23 6.54 5.53 7.6l9.08 2.94c1.24 4.09 2.88 8.03 4.88 11.79l-4.33 8.47c-1.58 3.08-.99 6.83 1.45 9.28l12.09 12.12c2.45 2.45 6.19 3.04 9.28 1.47l8.52-4.34c3.75 2.01 7.69 3.64 11.78 4.89l2.94 9.08c1.07 3.3 4.14 5.53 7.6 5.53h17.09c3.46 0 6.52-2.22 7.6-5.5l2.98-9.1c4.07-1.24 8.01-2.88 11.77-4.89l8.48 4.34c3.08 1.57 6.82.99 9.28-1.45l12.13-12.13c2.44-2.45 3.03-6.2 1.45-9.28l-4.33-8.48c2.01-3.75 3.64-7.69 4.89-11.78l9.08-2.94c3.3-1.07 5.53-4.14 5.53-7.6v-17.12c0-3.5-2.24-6.57-5.53-7.64zm-10.46 18.92-7.68 2.49c-2.67.87-4.7 3.07-5.33 5.81-1.26 5.48-3.4 10.63-6.37 15.32-1.51 2.39-1.65 5.4-.36 7.91l3.68 7.19-3.87 3.87-7.19-3.68c-2.51-1.28-5.51-1.15-7.9.35-4.74 2.98-9.9 5.13-15.34 6.38-2.74.63-4.95 2.65-5.81 5.33l-2.5 7.68h-5.49l-2.49-7.68c-.87-2.67-3.07-4.7-5.81-5.33-5.48-1.26-10.63-3.4-15.33-6.37-2.39-1.51-5.4-1.64-7.91-.36l-7.2 3.68-3.86-3.87 3.67-7.22c1.26-2.5 1.13-5.48-.36-7.85-2.96-4.73-5.1-9.89-6.35-15.35-.63-2.74-2.65-4.95-5.33-5.81l-7.68-2.49v-5.5l7.68-2.49c2.67-.87 4.7-3.07 5.33-5.81 1.26-5.46 3.4-10.63 6.35-15.35 1.49-2.37 1.62-5.35.36-7.85l-3.67-7.22 3.86-3.87 7.23 3.67c2.5 1.26 5.48 1.13 7.85-.36 4.73-2.96 9.89-5.1 15.35-6.35 2.74-.63 4.95-2.65 5.81-5.33l2.49-7.68h5.49l2.5 7.68c.87 2.67 3.07 4.7 5.81 5.33 5.46 1.26 10.63 3.39 15.35 6.35 2.37 1.49 5.35 1.62 7.85.36l7.22-3.67 3.87 3.87-3.68 7.19c-1.29 2.52-1.15 5.52.36 7.91 2.96 4.69 5.11 9.85 6.37 15.32.63 2.74 2.65 4.95 5.33 5.81l7.68 2.49v5.5zm-61.4-36.94c-18.85 0-34.19 15.34-34.19 34.19s15.34 34.19 34.19 34.19 34.19-15.34 34.19-34.19-15.34-34.19-34.19-34.19zm0 52.39c-10.03 0-18.2-8.16-18.2-18.2s8.16-18.2 18.2-18.2 18.2 8.16 18.2 18.2-8.17 18.2-18.2 18.2z" fill="#ffffff" fill-opacity="1" data-original-color="#000000ff" stroke="none" stroke-opacity="1"/></g></svg>