<svg id="Layer_1" enable-background="new 0 0 512 512" height="300" viewBox="0 0 512 512" width="300" xmlns="http://www.w3.org/2000/svg" version="1.1" xmlns:xlink="http://www.w3.org/1999/xlink" xmlns:svgjs="http://svgjs.dev/svgjs"><g width="100%" height="100%" transform="matrix(1,0,0,1,0,0)"><path d="m125.178 110.624c0-4.454 3.611-8.063 8.068-8.063h121.391c4.453 0 8.066 3.609 8.066 8.063 0 4.451-3.613 8.063-8.066 8.063h-121.391c-4.457.001-8.068-3.612-8.068-8.063zm-20.315 80.755h236.912c4.453 0 8.063-3.611 8.063-8.064 0-4.455-3.609-8.063-8.063-8.063h-236.912c-4.455 0-8.063 3.608-8.063 8.063.001 4.453 3.608 8.064 8.063 8.064zm0 72.684h138.738c4.455 0 8.064-3.61 8.064-8.064s-3.609-8.063-8.064-8.063h-138.738c-4.455 0-8.063 3.609-8.063 8.063s3.608 8.064 8.063 8.064zm358.791 10.369c-9.865 14.325-17.797 18.901-24.795 22.938-10.258 5.921-20.871 12.049-43.305 58.293l19.396 13.365c9.41 6.479 15.738 16.266 17.82 27.573 2.08 11.292-.342 22.696-6.822 32.108l-18.35 26.626v42.601c0 4.457-3.609 8.064-8.061 8.064h-352.437c-4.453 0-8.064-3.607-8.064-8.064v-483.872c-.001-4.451 3.61-8.064 8.064-8.064h256.092c2.141 0 4.189.854 5.705 2.365l96.342 96.35c1.514 1.511 2.361 3.56 2.361 5.702v83.121c14.145-3.507 29.654-1.238 42.568 7.66 11.58 7.978 19.363 19.992 21.912 33.822 2.547 13.833-.443 27.833-8.426 39.412zm-72.179 215.439v-32.802l-162.955-112.251c-1.764-1.216-2.969-3.077-3.354-5.186-.391-2.098.072-4.273 1.291-6.031l19.77-28.7c7.99-11.612 21.232-18.533 35.416-18.533 8.713 0 17.1 2.607 24.26 7.538l19.385 13.355c35.143-37.385 37.176-49.537 39.053-61.233 1.273-7.975 2.725-17.015 12.588-31.337 3.998-5.808 8.977-10.538 14.547-14.171v-86.764l-80.216-80.223v68.818h39.854c4.453 0 8.059 3.611 8.059 8.065 0 4.455-3.605 8.064-8.059 8.064h-47.922c-4.453 0-8.063-3.609-8.063-8.064v-88.285h-239.965v467.74zm14.328-107.562-109.053-75.12c-4.455-3.066-9.68-4.692-15.107-4.692-8.875 0-17.152 4.313-22.135 11.55l-15.201 22.06 153.162 105.508 15.197-22.054c4.035-5.865 5.545-12.976 4.248-20.04-1.305-7.067-5.25-13.177-11.111-17.212zm50.42-144.369c-1.771-9.593-7.174-17.926-15.207-23.462-16.598-11.427-39.373-7.226-50.805 9.361-7.801 11.319-8.795 17.538-9.949 24.743-2.221 13.877-4.598 28.268-41.545 67.934l43.41 29.899c23.916-48.711 36.496-55.987 48.676-63.016 6.316-3.646 11.773-6.793 19.572-18.113 5.533-8.033 7.611-17.747 5.848-27.346zm-178.869 96.1c-2.527 3.668-1.598 8.685 2.063 11.212l97.002 66.819c1.395.96 2.99 1.416 4.568 1.416 2.561 0 5.082-1.209 6.646-3.483 2.527-3.668 1.598-8.688-2.066-11.215l-96.998-66.819c-3.667-2.533-8.69-1.598-11.215 2.07zm-60.846 10.048v125.416c0 4.453-3.611 8.063-8.066 8.063h-125.411c-4.455 0-8.066-3.609-8.066-8.063v-125.416c0-4.455 3.611-8.064 8.066-8.064h125.41c4.455-.001 8.067 3.609 8.067 8.064zm-16.129 8.064h-109.285v109.289h109.285zm-73.203 91.364c1.518 1.518 3.572 2.361 5.705 2.361.223 0 .451-.008.674-.033 2.369-.196 4.525-1.428 5.9-3.358l44.027-62.04c2.578-3.632 1.723-8.672-1.906-11.248-3.643-2.575-8.672-1.712-11.242 1.912l-38.506 54.253-11.559-11.56c-3.15-3.152-8.25-3.152-11.4 0-3.152 3.15-3.152 8.252 0 11.402z" fill="#ffffff" fill-opacity="1" data-original-color="#000000ff" stroke="none" stroke-opacity="1"/></g></svg>