<svg id="Layer_1" enable-background="new 0 0 2000 2000" height="300" viewBox="0 0 2000 2000" width="300" xmlns="http://www.w3.org/2000/svg" version="1.1" xmlns:xlink="http://www.w3.org/1999/xlink" xmlns:svgjs="http://svgjs.dev/svgjs"><g width="100%" height="100%" transform="matrix(1,0,0,1,0,0)"><g><path d="m1189.48 964.2h-657.6c-16.57 0-30 13.43-30 30s13.43 30 30 30h657.6c16.57 0 30-13.43 30-30s-13.44-30-30-30z" fill="#ffffff" fill-opacity="1" data-original-color="#000000ff" stroke="none" stroke-opacity="1"/><path d="m1189.48 580.2h-339.8c-16.57 0-30 13.43-30 30s13.43 30 30 30h339.8c16.57 0 30-13.43 30-30s-13.44-30-30-30z" fill="#ffffff" fill-opacity="1" data-original-color="#000000ff" stroke="none" stroke-opacity="1"/><path d="m531.88 1216.2h262.55c16.57 0 30-13.43 30-30s-13.43-30-30-30h-262.55c-16.57 0-30 13.43-30 30s13.43 30 30 30z" fill="#ffffff" fill-opacity="1" data-original-color="#000000ff" stroke="none" stroke-opacity="1"/><path d="m1189.48 772.2h-339.8c-16.57 0-30 13.43-30 30s13.43 30 30 30h339.8c16.57 0 30-13.43 30-30s-13.44-30-30-30z" fill="#ffffff" fill-opacity="1" data-original-color="#000000ff" stroke="none" stroke-opacity="1"/><path d="m501.88 1378.2c0 16.57 13.43 30 30 30h317.8c16.57 0 30-13.43 30-30s-13.43-30-30-30h-317.8c-16.57 0-30 13.43-30 30z" fill="#ffffff" fill-opacity="1" data-original-color="#000000ff" stroke="none" stroke-opacity="1"/><path d="m1700 616.4c16.57 0 30-13.43 30-30v-147.08c0-93.37-74.52-169.32-166.12-169.32-1.08 0-2.16.02-3.23.04-.52-.03-1.05-.04-1.58-.04h-1122.95c-91.6 0-166.12 75.96-166.12 169.32v1260.68c0 16.57 13.43 30 30 30h1127.76c16.57 0 30-13.43 30-30v-383.71c0-.9-.05-1.79-.12-2.67l264-274.74c5.51-5.74 8.52-13.43 8.36-21.38-.16-7.96-3.47-15.52-9.21-21.03l-114.96-110.47c-11.95-11.48-30.94-11.1-42.42.85l-105.65 109.95v-380.4zm-30-177.08v117.08h-212.24v-117.08c0-60.28 47.61-109.32 106.12-109.32s106.12 49.04 106.12 109.32zm-84.11 510.73 71.7 68.89-474.22 493.52-269.92-259.36 68.89-71.7 176.59 169.68c11.95 11.48 30.94 11.1 42.42-.85zm-407.02 336.98-176.59-169.68c-11.95-11.48-30.94-11.1-42.42.85l-110.46 114.96c-5.51 5.74-8.52 13.43-8.36 21.38s3.47 15.52 9.21 21.03l313.18 300.93c5.82 5.59 13.3 8.37 20.78 8.37 7.88 0 15.75-3.08 21.64-9.21l191.92-199.73v294.07h-1067.77v-1230.68c0-60.28 47.61-109.32 106.12-109.32h1001.02c-24.55 29.52-39.38 67.69-39.38 109.32v619.91z" fill="#ffffff" fill-opacity="1" data-original-color="#000000ff" stroke="none" stroke-opacity="1"/><path d="m611.54 787.67c-10.75 0-19.49-8.74-19.49-19.49 0-16.57-13.43-30-30-30s-30 13.43-30 30c0 43.83 35.66 79.49 79.49 79.49h7.8v44.33c0 16.57 13.43 30 30 30s30-13.43 30-30v-44.33h7.8c43.83 0 79.49-35.66 79.49-79.49v-21.99c0-43.83-35.66-79.49-79.49-79.49h-7.8v-60.97h7.8c10.75 0 19.49 8.74 19.49 19.49 0 16.57 13.43 30 30 30s30-13.43 30-30c0-43.83-35.66-79.49-79.49-79.49h-7.8v-43.11c0-16.57-13.43-30-30-30s-30 13.43-30 30v43.11h-7.8c-43.83 0-79.49 35.66-79.49 79.49v21.99c0 43.83 35.66 79.49 79.49 79.49h7.8v60.97zm0-120.96c-10.75 0-19.49-8.74-19.49-19.49v-21.99c0-10.74 8.74-19.49 19.49-19.49h7.8v60.97zm67.8 60h7.8c10.75 0 19.49 8.74 19.49 19.49v21.99c0 10.75-8.74 19.49-19.49 19.49h-7.8z" fill="#ffffff" fill-opacity="1" data-original-color="#000000ff" stroke="none" stroke-opacity="1"/></g></g></svg>