<svg xmlns="http://www.w3.org/2000/svg" id="Layer_1" data-name="Layer 1" viewBox="0 0 512 512" width="300" height="300" version="1.1" xmlns:xlink="http://www.w3.org/1999/xlink" xmlns:svgjs="http://svgjs.dev/svgjs"><g width="100%" height="100%" transform="matrix(1,0,0,1,0,0)"><path d="M449.992,385.437a14.746,14.746,0,0,0-17.479-2.5L419.278,369.7a133.355,133.355,0,0,0-69.57-203.882V123.382a6,6,0,0,0-1.78-4.265L246.615,18.876a6,6,0,0,0-4.219-1.735H19a19.02,19.02,0,0,0-19,19V443.421a19.02,19.02,0,0,0,19,19H330.71a19.02,19.02,0,0,0,19-19V420.4a131.722,131.722,0,0,0,37.132-18.263l13.234,13.235a14.751,14.751,0,0,0,2.5,17.48l52.22,52.22a33.528,33.528,0,0,0,47.416-47.416Zm-18.534-92.33a121.21,121.21,0,1,1-35.5-85.708A120.417,120.417,0,0,1,431.458,293.107ZM248.091,37.217,330.5,118.758H255.089a7.006,7.006,0,0,1-7-7Zm89.617,406.2a7.007,7.007,0,0,1-7,7H19a7.007,7.007,0,0,1-7-7V36.14a7.007,7.007,0,0,1,7-7H236.091v45.2H123.03a6,6,0,0,0,0,12H236.091V99.427H123.03a6,6,0,0,0,0,12H236.091v.333a19.019,19.019,0,0,0,19,19h82.619v31.966a134.488,134.488,0,0,0-27.46-2.826,132.767,132.767,0,0,0-56.235,12.382c-.052,0-.1-.008-.156-.008H123.03a6,6,0,0,0,0,12H233.389a134.64,134.64,0,0,0-15.739,13.085H123.03a6,6,0,0,0,0,12h83.619a131.852,131.852,0,0,0-27.66,60.845H123.03a6,6,0,1,0,0,12h54.454c-.29,3.609-.445,7.245-.445,10.905,0,.729.015,1.455.026,2.181H123.03a6,6,0,1,0,0,12h54.758a131.829,131.829,0,0,0,22.354,60.845H123.03a6,6,0,0,0,0,12h86.357q3.189,3.684,6.669,7.168,3.075,3.076,6.32,5.918H123.03a6,6,0,0,0,0,12H238.237a132.3,132.3,0,0,0,72.012,21.1,134.408,134.408,0,0,0,27.459-2.826Zm66.733-56.12q3.9-3.9,7.419-8.052L423.6,390.991l-15.47,15.47L396.39,394.719Q400.539,391.189,404.441,387.3Zm6.621,33.2,26.579-26.579a2.739,2.739,0,0,1,3.867,0l5.23,5.23L416.292,429.6l-5.23-5.231A2.738,2.738,0,0,1,411.062,420.5Zm82.667,56.087a21.558,21.558,0,0,1-30.448,0l-38.5-38.5,30.447-30.446,38.506,38.5A21.555,21.555,0,0,1,493.729,476.587ZM92.755,64.506H48a6,6,0,0,0-6,6v44.756a6,6,0,0,0,6,6H92.755a6,6,0,0,0,6-6V70.506A6,6,0,0,0,92.755,64.506Zm-6,44.756H54V76.506H86.755Zm6,53.175H48a6,6,0,0,0-6,6v44.755a6,6,0,0,0,6,6H92.755a6,6,0,0,0,6-6V168.437A6,6,0,0,0,92.755,162.437Zm-6,44.755H54V174.437H86.755Zm6,53.176H48a6,6,0,0,0-6,6v44.755a6,6,0,0,0,6,6H92.755a6,6,0,0,0,6-6V266.368A6,6,0,0,0,92.755,260.368Zm-6,44.755H54V272.368H86.755Zm6,53.175H48a6,6,0,0,0-6,6v44.756a6,6,0,0,0,6,6H92.755a6,6,0,0,0,6-6V364.3A6,6,0,0,0,92.755,358.3Zm-6,44.756H54V370.3H86.755ZM291.4,318.537l77.721-63.943a6,6,0,1,1,7.623,9.267l-82.36,67.76a6,6,0,0,1-3.812,1.366q-.291,0-.585-.028a6,6,0,0,1-4.053-2.166l-43-52.405a6,6,0,1,1,9.277-7.612Z" fill="#ffffff" fill-opacity="1" data-original-color="#000000ff" stroke="none" stroke-opacity="1"/></g></svg>