<svg id="Layer_1" enable-background="new 0 0 512 512" viewBox="0 0 512 512" xmlns="http://www.w3.org/2000/svg" width="300" height="300" version="1.1" xmlns:xlink="http://www.w3.org/1999/xlink" xmlns:svgjs="http://svgjs.dev/svgjs"><g width="100%" height="100%" transform="matrix(1,0,0,1,0,0)"><path d="m33 105.3c0 33.2 27 60.1 60.1 60.1s60.1-27 60.1-60.1c-3.2-79.7-116.9-79.7-120.2 0zm10.7 0c0-27.3 22.2-49.5 49.5-49.5s49.5 22.2 49.5 49.5c-2.7 65.7-96.4 65.7-99 0zm107.5 63.3c25.1-6.5 18.3-18.2 20.7-37.7 3.4-8.2 13.6-15.2 13.4-25.6.2-10.4-10-17.4-13.4-25.6-2.2-8.6 2-20.4-4.2-28.6-5.9-8.4-18.4-8.1-25.9-12.8-12.9-14-14.8-27.8-38.6-18.3-7.7 3.2-12.4 3.2-20.2 0-14.5-6.3-24.3-2.8-32.3 10.7-4.2 7-7.7 9.5-15.7 11.4-25 6.4-18.2 18.2-20.6 37.7-3.4 8.2-13.6 15.1-13.4 25.5-.2 10.4 10 17.4 13.4 25.6 2.2 8.6-2 20.4 4.2 28.6 5.9 8.4 18.4 8.1 25.9 12.8 6.8 5.7 10.3 17.7 20.2 20.7 9.7 3.3 19.6-4.4 28.5-4.9 8.9.5 18.9 8.2 28.5 4.9 13.8-4.9 13.9-22.5 29.5-24.4zm-32.9 14.3c-7.1 1.4-17.2-5.9-25.2-5.4-8-.5-18.1 6.7-25.2 5.4-3-1-5.6-4.8-8.4-8.9-4.6-8.3-12.2-13.7-21.5-15.6-11.2-2.8-13.2-5.4-12.4-17 1-9.3-1.7-18.3-8.1-25.2-7.6-9-7.6-12.8 0-21.8 6.4-6.9 9.2-15.9 8.1-25.2-.8-11.6 1.2-14.2 12.4-17 9.3-1.9 16.8-7.4 21.5-15.6 2.7-4 5.3-7.9 8.4-8.9 7.1-1.4 17.2 5.9 25.2 5.4 8 .5 18.1-6.8 25.2-5.4 6.7 2.9 10.5 14.8 17.2 19.2 6.2 5.1 18.7 5.1 23.5 10.5 3.6 6.3-.2 18.1 2.7 25.6 1.4 4.3 4.2 7.9 7 11.4 7.6 9 7.6 12.8 0 21.8-6.4 6.9-9.2 15.9-8.1 25.2.1 4.8.3 9.4-1.5 11.8-4.9 5.4-17.3 5.4-23.5 10.5-6.8 4.4-10.6 16.3-17.3 19.2zm10.5-94.4-41.2 41.2c-1 1-2.4 1.6-3.8 1.6s-2.7-.5-3.8-1.6l-22.6-22.6c-4.9-4.9 2.6-12.4 7.5-7.5l18.9 18.9s37.5-37.5 37.5-37.5c5-4.9 12.4 2.6 7.5 7.5zm290.2-43.3c-33.2 0-60.1 27-60.1 60.1 3.3 79.8 117 79.7 120.3 0 0-33.1-27-60.1-60.2-60.1zm0 109.6c-27.3 0-49.5-22.2-49.5-49.5 2.7-65.6 96.3-65.6 99 0 0 27.3-22.2 49.5-49.5 49.5zm84-66.9c-11.3-10.3-1.3-25-9.5-36.8-5.9-8.4-18.4-8.1-25.9-12.8-6.8-5.7-10.3-17.7-20.2-20.7-9.7-3.3-19.6 4.4-28.5 4.9-8.9-.5-18.8-8.2-28.5-4.9-9.9 3-13.4 14.9-20.2 20.7-7.5 4.8-20 4.4-25.9 12.8-6.2 8.2-2 20-4.2 28.6-3.4 8.2-13.6 15.2-13.4 25.6-.2 10.4 10 17.4 13.4 25.6 2.2 8.6-2 20.4 4.2 28.6 5.9 8.4 18.4 8.1 25.9 12.8 13 14.1 14.8 27.8 38.6 18.4 7.7-3.2 12.4-3.2 20.2 0 14.5 6.3 24.3 2.8 32.3-10.7 4.2-7 7.7-9.5 15.7-11.4 25.1-6.5 18.3-18.2 20.7-37.7.8-2.5 3-5.2 5.2-8.2 10.7-11.9 10.8-22.8.1-34.8zm-8.4 28.3c-6.4 6.9-9.2 15.9-8.1 25.2.8 11.6-1.2 14.2-12.4 17-9.3 1.9-16.8 7.4-21.5 15.6-2.7 4-5.3 7.9-8.4 8.9-7.1 1.4-17.2-5.9-25.2-5.4-8-.5-18.1 6.8-25.2 5.4-6.7-2.9-10.5-14.8-17.2-19.2-6.2-5.1-18.7-5.1-23.5-10.5-3.6-6.3.2-18.1-2.7-25.6-1.4-4.3-4.2-7.9-7-11.4-7.6-9-7.7-12.8 0-21.8 6.4-6.9 9.2-15.9 8.1-25.2-.1-4.8-.3-9.4 1.5-11.8 5-5.4 17.4-5.4 23.6-10.4 6.7-4.3 10.5-16.2 17.2-19.2 7.1-1.4 17.2 5.9 25.2 5.4 8 .5 18.1-6.8 25.2-5.4 3 1 5.6 4.8 8.4 8.9 4.6 8.3 12.2 13.7 21.5 15.6 11.2 2.8 13.2 5.4 12.4 17-1 9.3 1.7 18.3 8.1 25.2 7.7 8.9 7.7 12.7 0 21.7zm-102.2 128.9c0-14.1-11.5-25.5-25.5-25.5-7-.4-14.2 1.2-19.4 5.6-3.1-10.7-12.9-18.5-24.6-18.5-6.6-.4-13.6 1-18.6 5-1.8-21-27.5-32.5-43.8-19.2v-69c0-14.4-10.8-26.8-24.6-28.1-15.6-1.8-30.3 11.5-30 27.2v161.5l-19.9-34.8c-6.4-11.7-22.7-16.1-34.1-9.1-16.9 9.9-22.6 31.6-12.9 48.6l39.5 68.4 26.6 43.5c3.9 6.4 9.1 11.8 15 16-9.3 1.4-16.6 9.3-16.6 19v40.1c0 10.7 8.7 19.3 19.3 19.3h137.4c10.7 0 19.3-8.7 19.3-19.3v-40.1c0-9.9-7.5-18-17.1-19.1 20.9-19 29.4-49.2 29.9-76.7.1 0 .1-94.8.1-94.8zm-23.4 190.7v40.1c0 4.8-3.9 8.7-8.7 8.7h-137.4c-4.8 0-8.7-3.9-8.7-8.7v-40.1c0-4.8 3.9-8.7 8.7-8.7h137.4c4.8 0 8.7 3.9 8.7 8.7zm12.8-95.9c-.4 28.8-13.6 76.6-48.8 76.5h-80.8c-15.4 0-29.9-8.2-37.9-21.3-16.2-25.5-50.8-85-66-111.7-6.9-11.9-2.8-27.2 9-34.1 6.6-4 15.8-1.4 19.5 5.3l29.9 51.7c2.5 4.6 10.1 2.6 9.9-2.7v-181.3c-.2-9.6 8.7-17.8 18.3-16.6 8.4.8 15 8.5 15 17.5v167.1c0 6.9 10.6 7 10.6 0v-76.4c0-4.7 2-9.2 5.5-12.3 10.5-10 28.3-1.4 27.9 13.3v75.5c0 6.9 10.6 7 10.6 0v-58.2c0-10 8.9-16.1 18.4-14.9 8.2 0 14.9 6.7 14.9 14.9v58.2c0 2.9 2.4 5.3 5.3 5.3s5.3-2.4 5.3-5.3v-45.3c.2-20.1 33.1-20.2 33.3 0v94.8zm63.9-253.7-19.2 19.2 19.2 19.2c2.1 2.1 2.1 5.4 0 7.5s-5.4 2.1-7.5 0l-19.2-19.2-19.1 19.1c-2.1 2.1-5.4 2.1-7.5 0s-2.1-5.4 0-7.5l19.2-19.2-19.2-19.2c-2.1-2.1-2.1-5.4 0-7.5s5.4-2.1 7.5 0l19.1 19.2 19.2-19.2c2.1-2.1 5.4-2.1 7.5 0s2.1 5.5 0 7.6z" fill="#ffffff" fill-opacity="1" data-original-color="#000000ff" stroke="none" stroke-opacity="1"/></g></svg>