<svg xmlns="http://www.w3.org/2000/svg" version="1.1" xmlns:xlink="http://www.w3.org/1999/xlink" width="512" height="512" x="0" y="0" viewBox="0 0 512 512" style="enable-background:new 0 0 512 512" xml:space="preserve" class=""><g><path d="m512 409.387-128.906-81.223c12.222-21.367 19.215-46.09 19.215-72.418 0-23.008-5.344-44.789-14.844-64.176v-46.668c0-55.476-45.137-100.609-100.613-100.609H162.047V0L0 102.105l128.906 81.223c-12.222 21.367-19.215 46.09-19.215 72.418 0 23.008 5.344 44.79 14.848 64.176v46.668c0 55.476 45.133 100.61 100.61 100.61h124.808v44.292zm-372.281-153.64c0-64.118 52.164-116.282 116.281-116.282s116.281 52.164 116.281 116.281S320.117 372.027 256 372.027s-116.281-52.164-116.281-116.28zm-7.703-105.954-75.684-47.688 75.684-47.69V74.32h154.836c38.918 0 70.582 31.664 70.582 70.582v5.504c-26.32-25.355-62.086-40.972-101.434-40.972-27.2 0-52.684 7.472-74.527 20.453h-49.457zm22.55 211.293c26.325 25.352 62.086 40.969 101.434 40.969 27.2 0 52.688-7.47 74.527-20.453h49.457v-19.903l75.684 47.688-75.684 47.691v-19.906H225.148c-38.918 0-70.582-31.664-70.582-70.582zm0 0" fill="#ffffff" opacity="1" data-original="#000000" class=""></path><path d="M269.543 332.902V314.68c25.445-4.43 38.25-19.864 38.25-37.594 0-42.352-63.531-30.863-63.531-44.652 0-3.938 3.613-7.223 14.937-7.223 10.016 0 20.688 2.793 32.012 8.539l11.656-28.074c-9.355-5.254-21.176-8.371-33.324-9.52V178.59h-23.145v17.894c-26.925 3.778-40.386 19.371-40.386 37.922 0 42.844 63.531 31.192 63.531 45.637 0 3.941-3.941 6.238-14.938 6.238-12.64 0-27.085-4.105-37.921-10.508l-12.477 28.239c9.852 6.074 25.773 10.504 42.191 11.488v17.402zm0 0" fill="#ffffff" opacity="1" data-original="#000000" class=""></path></g></svg>