<svg xmlns="http://www.w3.org/2000/svg" version="1.1" xmlns:xlink="http://www.w3.org/1999/xlink" width="512" height="512" x="0" y="0" viewBox="0 0 512 512" style="enable-background:new 0 0 512 512" xml:space="preserve" class=""><g><path d="M446.58 178.589V22.5c0-8.284-6.716-15-15-15H62.527c-8.284 0-15 6.716-15 15v315.499M47.527 372.999V489.5c0 8.284 6.716 15 15 15H431.58c8.284 0 15-6.716 15-15V284.363" style="stroke-width:15;stroke-linecap:round;stroke-linejoin:round;stroke-miterlimit:10;" fill="none" stroke="#ffffff" stroke-width="15" stroke-linecap="round" stroke-linejoin="round" stroke-miterlimit="10" data-original="#000000" opacity="1" class=""></path><path d="m223.307 459 26.285-69.014c.537-1.313 2.396-1.315 2.936-.003L278.573 459M231.504 441.812h39.004M328.573 458.453l12.303-68.167c.307-1.596 2.534-1.746 3.052-.205l20.015 67.84c.485 1.445 2.532 1.434 3.003-.015l19.332-67.814c.502-1.546 2.729-1.42 3.053.172l13.032 68.188M173.795 389v69.941c.774.133 24.512 0 24.512 0M303.573 389v70M146.314 394.977A34.836 34.836 0 0 0 126.745 389c-19.33 0-35 15.67-35 35s15.67 35 35 35c7.851 0 14.308-2.585 19.209-6.95a28.111 28.111 0 0 0 2.841-2.931M103.054 177h153M103.054 225.055h153M103.054 273.11h153M103.054 321.164h153M357.159 233.895l20 21 28-31.5" style="stroke-width:15;stroke-linecap:round;stroke-linejoin:round;stroke-miterlimit:10;" fill="none" stroke="#ffffff" stroke-width="15" stroke-linecap="round" stroke-linejoin="round" stroke-miterlimit="10" data-original="#000000" opacity="1" class=""></path><path d="M315.796 287.012a104.12 104.12 0 0 0 32.361 29.225l27.107 15.65a10.002 10.002 0 0 0 10 0l27.106-15.65a104.205 104.205 0 0 0 52.103-90.244v-31.301a9.999 9.999 0 0 0-5-8.66l-74.209-42.844a10.002 10.002 0 0 0-10 0l-74.209 42.844a10 10 0 0 0-5 8.66v31.301c0 10.136 1.483 20.059 4.277 29.514" style="stroke-width:15;stroke-linecap:round;stroke-linejoin:round;stroke-miterlimit:10;" fill="none" stroke="#ffffff" stroke-width="15" stroke-linecap="round" stroke-linejoin="round" stroke-miterlimit="10" data-original="#000000" opacity="1" class=""></path><path d="M363.156 290.256a74.207 74.207 0 0 1-37.103-64.264v-16.866a5 5 0 0 1 2.5-4.33l49.209-28.411a5 5 0 0 1 5 0l49.21 28.411a5 5 0 0 1 2.5 4.33v16.867a74.205 74.205 0 0 1-37.104 64.264l-14.606 8.432a5 5 0 0 1-5 0l-14.606-8.433zM294.217 56H108.054a5 5 0 0 0-5 5v41a5 5 0 0 0 5 5h278a5 5 0 0 0 5-5V61a5 5 0 0 0-5-5h-56.837" style="stroke-width:15;stroke-linecap:round;stroke-linejoin:round;stroke-miterlimit:10;" fill="none" stroke="#ffffff" stroke-width="15" stroke-linecap="round" stroke-linejoin="round" stroke-miterlimit="10" data-original="#000000" opacity="1" class=""></path></g></svg>