<svg xmlns="http://www.w3.org/2000/svg" version="1.1" xmlns:xlink="http://www.w3.org/1999/xlink" width="512" height="512" x="0" y="0" viewBox="0 0 64 64" style="enable-background:new 0 0 512 512" xml:space="preserve" class=""><g transform="matrix(0.35000000000000003,0,0,0.35000000000000003,20.80000000000001,20.800039672851568)"><g fill="#000"><path fill-rule="evenodd" d="M47.779 2.252a2 2 0 0 1 1.942 0l11.25 6.25A2 2 0 0 1 62 10.25v12.5a2 2 0 0 1-1.029 1.748l-11.218 6.233a1.99 1.99 0 0 1-1.084.267 1.989 1.989 0 0 1-.922-.267l-11.218-6.233A2 2 0 0 1 35.5 22.75v-12.5a2 2 0 0 1 1.029-1.748zM50.75 25.6 58 21.573V13.65l-7.25 4.028zm-4-7.924V25.6l-7.25-4.028V13.65zm2-11.39-7.132 3.963 7.132 3.962 7.132-3.962zM14.279 33.252a2 2 0 0 1 1.942 0l11.25 6.25A2 2 0 0 1 28.5 41.25v12.5a2 2 0 0 1-1.029 1.748l-11.218 6.233a1.99 1.99 0 0 1-1.066.268 1.989 1.989 0 0 1-.94-.268L3.029 55.498A2 2 0 0 1 2 53.75v-12.5a2 2 0 0 1 1.029-1.748zM24.5 52.573l-7.25 4.028v-7.924l7.25-4.028zM6 44.65l7.25 4.028V56.6L6 52.573zm2.118-3.399 7.132 3.962 7.132-3.962-7.132-3.962z" clip-rule="evenodd" fill="#fffefe" opacity="1" data-original="#000000" class=""></path><path d="M18 2C9.163 2 2 9.163 2 18v5a2 2 0 0 0 3.414 1.414l3.5-3.5a2 2 0 1 0-2.828-2.828L6 18.172V18c0-6.627 5.373-12 12-12h12a2 2 0 1 0 0-4zM62 37a2 2 0 0 0-3.664-1.11l-3 4.5A2 2 0 0 0 58 43.234V46c0 6.627-5.373 12-12 12h-5a2 2 0 1 0 0 4h5c8.837 0 16-7.163 16-16z" fill="#fffefe" opacity="1" data-original="#000000" class=""></path></g></g></svg>