<svg xmlns="http://www.w3.org/2000/svg" version="1.1" xmlns:xlink="http://www.w3.org/1999/xlink" width="512" height="512" x="0" y="0" viewBox="0 0 511.998 511.998" style="enable-background:new 0 0 512 512" xml:space="preserve" class=""><g><path d="M56.009 181.061c.94.39 1.92.58 2.88.58 2.94 0 5.73-1.74 6.93-4.63 1.59-3.82-.23-8.21-4.05-9.8s-8.21.22-9.81 4.05c-1.59 3.82.23 8.209 4.05 9.8zM174.469 66.261c.95 0 1.92-.19 2.86-.57 3.83-1.59 5.65-5.98 4.06-9.8-1.58-3.83-5.97-5.65-9.79-4.06-3.83 1.58-5.65 5.97-4.07 9.79a7.515 7.515 0 0 0 6.94 4.64zM334.869 65.771c.94.39 1.92.58 2.88.58 2.94 0 5.73-1.74 6.93-4.63 1.59-3.83-.23-8.21-4.05-9.8a7.502 7.502 0 0 0-9.81 4.05c-1.58 3.83.23 8.21 4.05 9.8zM65.639 334.561c-1.58-3.83-5.96-5.65-9.79-4.07s-5.65 5.97-4.07 9.8a7.501 7.501 0 0 0 6.93 4.64 7.508 7.508 0 0 0 6.93-10.37zM446.269 177.22c1.19 2.89 3.99 4.63 6.93 4.63.96 0 1.93-.18 2.87-.57a7.512 7.512 0 0 0 4.06-9.8h-.01c-1.58-3.83-5.97-5.64-9.79-4.06-3.83 1.59-5.65 5.981-4.06 9.8zM176.909 446.141c-3.82-1.6-8.21.21-9.81 4.04a7.498 7.498 0 0 0 4.04 9.8c.95.4 1.92.58 2.88.58a7.498 7.498 0 0 0 2.89-14.42zM455.899 331.16c-3.82-1.6-8.21.21-9.81 4.03-1.59 3.82.21 8.22 4.04 9.81.94.39 1.92.58 2.88.58 2.94 0 5.73-1.73 6.93-4.61 1.59-3.829-.22-8.219-4.04-9.81zM334.459 446.401c-3.83 1.58-5.66 5.96-4.08 9.79a7.515 7.515 0 0 0 6.94 4.64c.95 0 1.92-.18 2.86-.57 3.82-1.58 5.65-5.96 4.07-9.79s-5.97-5.65-9.79-4.07z" fill="#ffffff" opacity="1" data-original="#000000" class=""></path><path d="M469.382 213.385c-20.939 0-38.387 15.184-41.942 35.116h-45.45c-1.718-29.165-13.38-55.696-31.638-76.247l32.188-32.189a42.37 42.37 0 0 0 24.343 7.667c23.499 0 42.616-19.118 42.616-42.616S430.381 62.5 406.883 62.5c-23.499 0-42.617 19.118-42.617 42.616a42.37 42.37 0 0 0 7.667 24.343l-32.188 32.188c-20.55-18.263-47.082-29.929-76.248-31.647V84.56c19.933-3.556 35.117-21.003 35.117-41.942 0-23.499-19.118-42.616-42.617-42.616s-42.616 19.118-42.616 42.616c0 20.939 15.184 38.386 35.116 41.942V130c-29.167 1.718-55.699 13.383-76.25 31.645l-32.186-32.186a42.353 42.353 0 0 0 7.666-24.338 42.618 42.618 0 0 0-22.052-37.33 7.5 7.5 0 0 0-7.237 13.139 27.615 27.615 0 0 1 14.288 24.19c0 15.224-12.39 27.61-27.62 27.61-15.224 0-27.61-12.386-27.61-27.61a27.645 27.645 0 0 1 14.286-24.194 7.5 7.5 0 0 0-7.251-13.131 42.652 42.652 0 0 0-22.032 37.326c0 23.495 19.115 42.61 42.61 42.61a42.37 42.37 0 0 0 24.346-7.667l32.186 32.187c-18.261 20.551-29.926 47.083-31.644 76.25H84.559c-3.555-19.934-21.003-35.118-41.943-35.118C19.118 213.383 0 232.5 0 255.999s19.118 42.616 42.616 42.616c20.939 0 38.386-15.183 41.942-35.115h45.44c1.718 29.166 13.384 55.697 31.647 76.247l-32.186 32.187a42.366 42.366 0 0 0-24.344-7.668c-23.499 0-42.616 19.118-42.616 42.617s19.118 42.616 42.616 42.616c23.499 0 42.617-19.118 42.617-42.616a42.363 42.363 0 0 0-7.666-24.342l32.187-32.188c20.551 18.258 47.081 29.921 76.246 31.639v45.447c-19.932 3.556-35.116 21.003-35.116 41.942 0 23.499 19.118 42.616 42.616 42.616 23.499 0 42.617-19.118 42.617-42.616 0-20.939-15.184-38.387-35.117-41.942v-45.444a126.034 126.034 0 0 0 76.292-31.596l32.142 32.142a42.368 42.368 0 0 0-7.666 24.342c0 23.499 19.118 42.616 42.616 42.616 23.499 0 42.617-19.118 42.617-42.616 0-23.499-19.118-42.617-42.617-42.617a42.366 42.366 0 0 0-24.344 7.668l-32.147-32.147c3.682-4.15 7.123-8.56 10.275-13.23a7.501 7.501 0 0 0-12.434-8.392 111.753 111.753 0 0 1-10.722 13.511 125.953 125.953 0 0 0-27.07-17.55c3.79-15.545 6.009-32.74 6.497-50.626h50.02a110.682 110.682 0 0 1-4.608 25.119 7.5 7.5 0 0 0 14.34 4.402c2.94-9.577 4.698-19.478 5.289-29.521h45.462c3.556 19.932 21.003 35.116 41.942 35.116 23.499 0 42.616-19.118 42.616-42.616s-19.119-42.615-42.617-42.615zm-426.766 70.23C27.389 283.615 15 271.227 15 255.999s12.389-27.617 27.616-27.617c15.228 0 27.617 12.389 27.617 27.617s-12.389 27.616-27.617 27.616zm213.597 83.603c-.071 0-.142.003-.214.003l-.185-.002c-10.96-.123-22.193-11.167-30.847-30.352-1.97-4.366-3.749-9.046-5.351-13.967 11.57-3.998 23.837-6.081 36.382-6.081s24.812 2.083 36.382 6.081c-1.602 4.921-3.381 9.601-5.351 13.967-8.645 19.167-19.865 30.208-30.816 30.351zm-44.92-24.184c3.279 7.269 6.93 13.593 10.88 18.922a111.145 111.145 0 0 1-36.642-19.968 110.927 110.927 0 0 1 20.227-13.207c1.667 5 3.512 9.768 5.535 14.253zm-36.762-11.396c-16.862-18.146-27.749-41.911-29.504-68.139h50.031c.488 17.887 2.708 35.082 6.497 50.627a126.004 126.004 0 0 0-27.024 17.512zm126.172-162.674c-3.28-7.272-6.933-13.599-10.885-18.929a111.125 111.125 0 0 1 36.648 19.975 110.958 110.958 0 0 1-20.228 13.208c-1.667-5.001-3.512-9.769-5.535-14.254zm-8.323 20.135c-11.57 3.998-23.838 6.081-36.382 6.081-12.545 0-24.812-2.083-36.382-6.081 1.602-4.921 3.381-9.6 5.351-13.967 8.702-19.293 20.013-30.358 31.031-30.358s22.329 11.065 31.032 30.358c1.969 4.366 3.749 9.046 5.35 13.967zm-81.087-20.135c-2.023 4.485-3.868 9.253-5.535 14.253a110.979 110.979 0 0 1-20.23-13.209 111.137 111.137 0 0 1 36.651-19.974c-3.952 5.331-7.605 11.657-10.886 18.93zm-36.763 11.395a125.934 125.934 0 0 0 27.026 17.513c-3.79 15.545-6.01 32.741-6.497 50.628h-50.031c1.755-26.229 12.641-49.994 29.502-68.141zm41.085 23.22c12.865 4.336 26.473 6.6 40.383 6.6s27.518-2.264 40.383-6.6c3.199 13.813 5.095 29.036 5.55 44.921h-91.867c.456-15.885 2.352-31.108 5.551-44.921zm94.826-5.707a126.002 126.002 0 0 0 27.023-17.51c16.858 18.147 27.742 41.911 29.497 68.139h-50.023c-.488-17.888-2.708-35.083-6.497-50.629zm96.442-120.373c15.228 0 27.616 12.389 27.616 27.616s-12.389 27.616-27.616 27.616c-15.228 0-27.617-12.389-27.617-27.616s12.389-27.616 27.617-27.616zM228.382 42.617c0-15.228 12.389-27.616 27.616-27.616 15.228 0 27.617 12.389 27.617 27.616s-12.389 27.616-27.617 27.616c-15.227.001-27.616-12.388-27.616-27.616zM105.114 434.499c-15.228 0-27.616-12.389-27.616-27.616 0-15.228 12.389-27.617 27.616-27.617 15.228 0 27.617 12.389 27.617 27.617s-12.389 27.616-27.617 27.616zm178.501 34.882c0 15.228-12.389 27.616-27.617 27.616s-27.616-12.389-27.616-27.616c0-15.228 12.389-27.617 27.616-27.617 15.228 0 27.617 12.389 27.617 27.617zm123.267-90.115c15.228 0 27.617 12.389 27.617 27.617s-12.389 27.616-27.617 27.616-27.616-12.389-27.616-27.616c0-15.228 12.388-27.617 27.616-27.617zM326.5 342.017a111.063 111.063 0 0 1-36.683 19.948c3.952-5.331 7.605-11.657 10.886-18.93 2.023-4.485 3.868-9.253 5.535-14.253a110.938 110.938 0 0 1 20.262 13.235zm-30.119-33.598a126.311 126.311 0 0 0-40.383-6.6 126.307 126.307 0 0 0-40.383 6.6c-3.199-13.812-5.095-29.035-5.55-44.919h91.867c-.456 15.884-2.352 31.106-5.551 44.919zm173.001-24.802c-15.228 0-27.617-12.389-27.617-27.616s12.389-27.616 27.617-27.616 27.616 12.389 27.616 27.616-12.389 27.616-27.616 27.616z" fill="#ffffff" opacity="1" data-original="#000000" class=""></path></g></svg>