<svg xmlns="http://www.w3.org/2000/svg" version="1.1" xmlns:xlink="http://www.w3.org/1999/xlink" width="512" height="512" x="0" y="0" viewBox="0 0 511.997 511.997" style="enable-background:new 0 0 512 512" xml:space="preserve" class=""><g><path d="M341.052 213.808c8.531-8.444 13.826-20.15 13.826-33.073 0-25.668-20.887-46.55-46.56-46.55-19.783 0-37.317 12.541-43.864 30.918-2.744-.506-5.567-.784-8.456-.784s-5.711.278-8.456.784c-6.547-18.378-24.082-30.918-43.864-30.918-25.673 0-46.56 20.882-46.56 46.55 0 12.923 5.296 24.629 13.827 33.073-20.464 11.657-33.638 33.731-33.638 57.738 0 4.143 3.358 7.5 7.5 7.5s7.5-3.357 7.5-7.5c0-21.203 13.275-40.457 33.061-48.008a46.296 46.296 0 0 0 26.781 2.969 46.67 46.67 0 0 0 11.107 17.431 66.254 66.254 0 0 0-33.627 57.745c0 4.143 3.358 7.5 7.5 7.5s7.5-3.357 7.5-7.5a51.304 51.304 0 0 1 31.376-47.336c.51-.216.981-.485 1.415-.792a46.275 46.275 0 0 0 18.578 3.879c6.5 0 12.69-1.343 18.314-3.759 19.777 7.551 33.055 26.825 33.055 48.008 0 4.143 3.358 7.5 7.5 7.5s7.5-3.357 7.5-7.5c0-23.985-13.177-46.077-33.635-57.738a46.662 46.662 0 0 0 11.115-17.438 46.287 46.287 0 0 0 26.78-2.969c19.786 7.551 33.061 26.803 33.061 48.008 0 4.143 3.358 7.5 7.5 7.5s7.5-3.357 7.5-7.5c.002-24.008-13.172-46.081-33.636-57.738zm-131.61-2.931c0 .295.017.585.022.878-1.889.352-3.824.54-5.785.54-17.402 0-31.56-14.157-31.56-31.56 0-17.396 14.158-31.55 31.56-31.55 13.426 0 25.319 8.519 29.745 20.993-14.29 7.958-23.982 23.215-23.982 40.699zm15 0c0-17.4 14.156-31.557 31.557-31.557s31.557 14.156 31.557 31.557-14.156 31.557-31.557 31.557-31.557-14.157-31.557-31.557zm78.091.878c.005-.293.022-.584.022-.878 0-17.484-9.692-32.74-23.982-40.698 4.426-12.474 16.319-20.993 29.745-20.993 17.402 0 31.56 14.153 31.56 31.55 0 17.402-14.158 31.56-31.56 31.56a31.66 31.66 0 0 1-5.785-.541z" fill="#ffffff" opacity="1" data-original="#000000" class=""></path><path d="M450.229 324.137V187.81c18.695-3.528 32.883-19.972 32.883-39.677 0-22.27-18.117-40.387-40.387-40.387-12.239 0-23.216 5.48-30.628 14.106L294.11 53.727a40.202 40.202 0 0 0 2.275-13.342C296.385 18.117 278.268 0 255.999 0s-40.387 18.117-40.387 40.386c0 4.675.807 9.162 2.275 13.342L99.9 121.852c-7.412-8.626-18.389-14.106-30.628-14.106-22.27 0-40.387 18.117-40.387 40.387 0 19.705 14.188 36.148 32.883 39.677v136.327c-18.695 3.528-32.883 19.972-32.883 39.677 0 22.27 18.117 40.387 40.387 40.387 12.22 0 23.181-5.463 30.593-14.065l118.021 68.137a40.183 40.183 0 0 0-2.274 13.338c0 22.27 18.117 40.387 40.387 40.387s40.387-18.117 40.387-40.387c0-4.673-.807-9.16-2.274-13.338l118.021-68.137c7.412 8.603 18.373 14.065 30.593 14.065 22.27 0 40.387-18.117 40.387-40.387-.001-19.706-14.19-36.149-32.884-39.677zm-7.504-201.391c13.998 0 25.387 11.389 25.387 25.387s-11.389 25.387-25.387 25.387-25.387-11.389-25.387-25.387 11.389-25.387 25.387-25.387zM255.999 15c13.998 0 25.387 11.388 25.387 25.386 0 13.985-11.368 25.365-25.348 25.386l-.039-.002-.039.002c-13.98-.021-25.348-11.401-25.348-25.386C230.612 26.388 242 15 255.999 15zM43.885 148.133c0-13.998 11.389-25.387 25.387-25.387s25.387 11.389 25.387 25.387S83.27 173.52 69.272 173.52s-25.387-11.389-25.387-25.387zM69.272 389.2c-13.998 0-25.387-11.389-25.387-25.387s11.389-25.387 25.387-25.387 25.387 11.389 25.387 25.387S83.27 389.2 69.272 389.2zm186.727 107.797c-13.998 0-25.387-11.389-25.387-25.387s11.389-25.387 25.387-25.387 25.387 11.389 25.387 25.387-11.389 25.387-25.387 25.387zm30.595-51.705c-5.857-6.8-13.932-11.631-23.096-13.359v-28.894c0-4.143-3.358-7.5-7.5-7.5s-7.5 3.357-7.5 7.5v28.894c-9.163 1.729-17.238 6.559-23.096 13.359l-118.019-68.136a40.181 40.181 0 0 0 2.275-13.342c0-4.679-.809-9.171-2.279-13.354l25.03-14.455a7.501 7.501 0 0 0-7.502-12.99l-25.052 14.468c-5.857-6.794-13.929-11.62-23.088-13.347V187.811c9.162-1.727 17.236-6.556 23.093-13.353l25.086 14.487a7.497 7.497 0 0 0 10.245-2.744 7.5 7.5 0 0 0-2.744-10.246l-25.067-14.476a40.205 40.205 0 0 0 2.276-13.346 40.17 40.17 0 0 0-2.258-13.291l118.004-68.135c5.857 6.798 13.931 11.628 23.093 13.356v28.897c0 4.143 3.358 7.5 7.5 7.5s7.5-3.357 7.5-7.5V80.063c9.162-1.728 17.236-6.558 23.093-13.356l118.004 68.135a40.196 40.196 0 0 0-2.258 13.291c0 4.676.808 9.165 2.276 13.346l-25.067 14.476a7.5 7.5 0 0 0 7.501 12.99l25.086-14.487c5.858 6.797 13.932 11.626 23.093 13.353v136.325c-9.159 1.727-17.23 6.553-23.088 13.347l-25.052-14.468a7.5 7.5 0 1 0-7.502 12.99l25.03 14.455a40.199 40.199 0 0 0-2.279 13.354c0 4.675.807 9.163 2.275 13.342zM442.725 389.2c-13.998 0-25.387-11.389-25.387-25.387s11.389-25.387 25.387-25.387 25.387 11.389 25.387 25.387-11.389 25.387-25.387 25.387z" fill="#ffffff" opacity="1" data-original="#000000" class=""></path><path d="M318.817 333.49h-22.32c-4.142 0-7.5 3.357-7.5 7.5s3.358 7.5 7.5 7.5h22.32c4.142 0 7.5-3.357 7.5-7.5s-3.358-7.5-7.5-7.5zM318.817 362.865H193.18c-4.142 0-7.5 3.357-7.5 7.5s3.358 7.5 7.5 7.5h125.638a7.5 7.5 0 1 0-.001-15zM193.18 348.49h.104c4.142 0 7.5-3.357 7.5-7.5s-3.358-7.5-7.5-7.5h-.104c-4.142 0-7.5 3.357-7.5 7.5s3.358 7.5 7.5 7.5zM219.262 348.49c4.142 0 7.5-3.357 7.5-7.5s-3.358-7.5-7.5-7.5h-.104c-4.142 0-7.5 3.357-7.5 7.5s3.358 7.5 7.5 7.5zM245.24 348.49c4.142 0 7.5-3.357 7.5-7.5s-3.358-7.5-7.5-7.5h-.104c-4.142 0-7.5 3.357-7.5 7.5s3.358 7.5 7.5 7.5z" fill="#ffffff" opacity="1" data-original="#000000" class=""></path></g></svg>