<svg xmlns="http://www.w3.org/2000/svg" version="1.1" xmlns:xlink="http://www.w3.org/1999/xlink" width="512" height="512" x="0" y="0" viewBox="0 0 28 28" style="enable-background:new 0 0 512 512" xml:space="preserve" class=""><g><g data-name="Layer 2"><path d="m26.186 5.536-5-2a.5.5 0 0 0-.372 0l-5 2A.5.5 0 0 0 15.5 6v5.168a5.529 5.529 0 0 0 2.671 4.718l2.572 1.543a.5.5 0 0 0 .514 0l2.243-1.346v5.6a.821.821 0 0 1-.82.82H3.32a.821.821 0 0 1-.82-.82V10.5H14a.5.5 0 0 0 0-1H2.5V8.32a.821.821 0 0 1 .82-.82H14a.5.5 0 0 0 0-1H3.32A1.821 1.821 0 0 0 1.5 8.32v13.36a1.821 1.821 0 0 0 1.82 1.82h19.36a1.821 1.821 0 0 0 1.82-1.82V15.4a5.529 5.529 0 0 0 2-4.234V6a.5.5 0 0 0-.314-.464zm-.686 5.632a4.522 4.522 0 0 1-2.186 3.86L21 16.417l-2.314-1.389a4.522 4.522 0 0 1-2.186-3.86v-4.83l4.5-1.8 4.5 1.8z" fill="#ffffff" opacity="1" data-original="#000000" class=""></path><path d="M19.354 9.732a.5.5 0 0 0-.708.707l1.334 1.333a.5.5 0 0 0 .707 0l2.667-2.667a.5.5 0 0 0-.708-.707l-2.313 2.314zM5 19.5a.5.5 0 0 0 0 1h4a.5.5 0 0 0 0-1z" fill="#ffffff" opacity="1" data-original="#000000" class=""></path></g></g></svg>