<svg xmlns="http://www.w3.org/2000/svg" version="1.1" xmlns:xlink="http://www.w3.org/1999/xlink" width="512" height="512" x="0" y="0" viewBox="0 0 512 512" style="enable-background:new 0 0 512 512" xml:space="preserve" class=""><g><path d="m496 319.66-42.69-130.1c-3.45-10.51-14.8-16.25-25.31-12.8l-40.91 13.42c-5.08 1.67-9.21 5.22-11.63 10.01-2.12 4.2-2.71 8.89-1.7 13.4l-6.93 3.11c-11.43 5.12-22.44 6.23-34.66 3.48l-.81-.18c33.23-42.04 31-87.09 27.71-153.31l-.05-.97A5.99 5.99 0 0 0 354 60.1c-19.64-3.22-32.63-14.26-39.72-33.75a6.004 6.004 0 0 0-5.64-3.95h-105.3c-2.52 0-4.78 1.58-5.64 3.95-7.09 19.49-20.08 30.53-39.72 33.75a6 6 0 0 0-5.02 5.62l-.05.97c-3.62 72.85-5.89 118.92 37.24 164.25l-13.85-.22-19.48-13.35c.71-3.31.59-6.77-.44-10.11-1.58-5.13-5.04-9.34-9.76-11.84l-38.04-20.17c-9.77-5.18-21.93-1.44-27.11 8.33L17.33 304.55c-5.18 9.77-1.44 21.93 8.33 27.11l38.04 20.17c2.92 1.55 6.11 2.33 9.34 2.33 1.99 0 3.98-.3 5.94-.9 4.16-1.28 7.69-3.81 10.22-7.23 5.51 2.12 9.48 5.53 12.44 10.71l8.5 14.88c-1.73 3.55-2.54 7.5-2.33 11.56.33 6.31 3.08 12.11 7.75 16.32a23.43 23.43 0 0 0 15.78 6.06c.35 0 .7-.01 1.05-.03-.55 7.06 2.04 14.3 7.69 19.4 4.51 4.07 10.17 6.07 15.81 6.07 1.03 0 2.07-.07 3.09-.21.09 6.34 2.69 12.63 7.76 17.2a23.43 23.43 0 0 0 15.78 6.06 23.757 23.757 0 0 0 3.8-.3c.26 6.12 2.86 12.14 7.76 16.55 4.51 4.07 10.17 6.07 15.81 6.07 5.42 0 10.82-1.86 15.17-5.5l14.99 12.7a25.268 25.268 0 0 0 16.41 6.02c.72 0 1.44-.03 2.16-.09 6.8-.56 12.96-3.72 17.34-8.9 3.17-3.74 5.14-8.21 5.78-12.97 4.21 2.88 9.15 4.41 14.28 4.41.72 0 1.44-.03 2.16-.09 6.8-.56 12.96-3.72 17.34-8.9 3.56-4.21 5.51-9.26 5.92-14.41 3.23 1.32 6.65 1.99 10.06 1.99 7.58 0 15.12-3.21 20.39-9.43a26.497 26.497 0 0 0 6.28-16.04c2.92 1.08 6.03 1.64 9.22 1.64.75 0 1.5-.03 2.26-.09 7.12-.59 13.58-3.9 18.18-9.33 4.6-5.42 6.8-12.33 6.21-19.46-.59-7.08-3.86-13.5-9.23-18.09 11.07-6.13 19.6-13.9 24.94-22.81 2.2-3.68 5.13-6.01 9.15-7.34 1.92 3.19 4.69 5.79 8.11 7.52 2.86 1.45 5.95 2.18 9.06 2.18 2.09 0 4.2-.33 6.24-1l40.91-13.42c10.49-3.44 16.23-14.79 12.78-25.3zM164.71 71c20.08-4.63 34.42-16.91 42.72-36.6h97.14c8.3 19.68 22.64 31.97 42.72 36.6 3.26 66.01 4.62 106.96-29.05 146.05l-12.35-2.78c31.24-33.5 33.5-68.58 30.72-130.76a5.988 5.988 0 0 0-3.73-5.29c-14.35-5.84-25.71-15.8-33.77-29.6a6.007 6.007 0 0 0-5.18-2.97h-75.88c-2.13 0-4.11 1.13-5.18 2.97-8.06 13.79-19.42 23.75-33.77 29.6a5.988 5.988 0 0 0-3.73 5.29c-1.73 38.81-1.45 64.04 4.96 86.24 6.37 22.04 19 40.31 40.6 58.53l-3.63 3.09-9.75-.16c-47.78-43.84-46.52-85.82-42.84-160.21zm65.5 149.4c-42.25-34.82-45.84-65.28-43-132.61 14.15-6.54 25.64-16.65 34.22-30.13h69.14c8.58 13.48 20.06 23.6 34.22 30.13 2.56 60.83-.26 92.01-32.67 123.39l-18.87-4.24c-13.91-3.13-27.54.24-38.38 9.49zM75.45 341.8c-2.07.63-4.25.43-6.13-.57l-38.04-20.17c-3.92-2.08-5.42-6.97-3.34-10.89L92.06 189.2c1.44-2.73 4.24-4.28 7.13-4.28 1.27 0 2.56.3 3.76.94L141 206.02c1.89 1 3.28 2.69 3.91 4.76s.43 4.25-.57 6.13L80.21 337.89c-1 1.89-2.69 3.28-4.76 3.91zm48.13 48.8c-4.76-4.29-5.14-11.65-.85-16.41l8.71-9.66c4.29-4.76 11.65-5.14 16.41-.85 2.29 2.07 3.64 4.92 3.8 8.03s-.89 6.09-2.95 8.38l-8.71 9.66c-4.29 4.77-11.65 5.14-16.41.85zm24.52 25.44c-4.76-4.29-5.14-11.65-.85-16.41l1.65-1.83 8.71-9.66.01-.01 12.39-13.74c2.06-2.29 4.92-3.64 8.03-3.8.21-.01.42-.02.62-.02 2.89 0 5.62 1.04 7.76 2.97 2.29 2.07 3.64 4.92 3.8 8.03s-.89 6.09-2.95 8.38l-22.76 25.24c-4.29 4.76-11.65 5.14-16.41.85zm35.04 26c-3.11.17-6.09-.89-8.38-2.95-4.76-4.29-5.14-11.65-.85-16.41l17.68-19.61c2.07-2.29 4.92-3.64 8.03-3.8 3.1-.17 6.09.89 8.38 2.95 2.29 2.07 3.64 4.92 3.8 8.03s-.89 6.09-2.95 8.38l-12.49 13.85-.01.01-5.18 5.74c-2.07 2.3-4.92 3.65-8.03 3.81zm18.95 19.36c-2.29-2.07-3.64-4.92-3.8-8.03s.89-6.09 2.95-8.38l4.03-4.46c4.29-4.75 11.65-5.13 16.4-.84 2.29 2.07 3.64 4.92 3.8 8.03s-.89 6.09-2.95 8.38l-4.02 4.45c-4.29 4.76-11.65 5.14-16.41.85zm176.56-51.76c-2.52 2.98-6.08 4.8-10.01 5.12-3.93.33-7.73-.89-10.71-3.41l-9.17-7.77-41.35-35.04a6.005 6.005 0 0 0-8.46.7 6.005 6.005 0 0 0 .7 8.46L341 412.74l.01.01c6.17 5.24 6.94 14.53 1.7 20.71-5.24 6.19-14.54 6.96-20.72 1.71l-41.35-35.04a6.005 6.005 0 0 0-8.46.7 6.005 6.005 0 0 0 .7 8.46l31.99 27.11.01.01c5.56 4.81 6.21 13.29 1.46 18.9-2.31 2.73-5.57 4.4-9.18 4.7-3.6.3-7.09-.81-9.82-3.13l-31.89-27.02a6.005 6.005 0 0 0-8.46.7 6.005 6.005 0 0 0 .7 8.46l17.51 14.84c2.73 2.31 4.39 5.57 4.69 9.17s-.81 7.09-3.13 9.82c-2.31 2.73-5.57 4.4-9.18 4.7-3.6.3-7.09-.81-9.82-3.13L233.12 462c6.86-9.63 5.57-23.12-3.42-31.23a23.416 23.416 0 0 0-10.78-5.51c3.43-4.45 5.15-9.93 4.86-15.62-.33-6.31-3.08-12.11-7.75-16.32-4-3.61-9.03-5.7-14.35-6.01.45-2.06.64-4.19.53-6.36-.33-6.31-3.08-12.11-7.75-16.32s-10.72-6.36-17.03-6.03c-5.65.29-10.87 2.53-14.93 6.34a23.503 23.503 0 0 0-6.6-10.16c-9.67-8.72-24.64-7.95-33.36 1.72l-4.42 4.91-6.05-10.61c-4-7.01-9.72-12.13-16.99-15.3l56.73-107.02L171 241.64a5.98 5.98 0 0 0 3.3 1.05l29.21.47-11.82 10.07c-6.65 5.67-10.17 13.28-10.17 22.02v59.03c0 1.61.65 3.16 1.8 4.29 8.48 8.3 18.46 10.11 28.11 5.1 17.02-8.84 29.59-38.39 26.91-54.84-.35-2.13 2.7-4.7 5.85-5.95 3.34-1.32 6.69-.77 9.43 1.55l123.32 104.49c2.98 2.52 4.8 6.08 5.12 10.01s-.89 7.73-3.41 10.71zm20.79-58.77c-4.79 7.98-13.44 15.21-24.55 20.59l-113.51-96.18c-6.1-5.17-14.18-6.49-21.61-3.55-7.65 3.03-14.72 10.1-13.27 19.03 1.92 11.76-8.6 36.03-20.6 42.26-2.8 1.46-7.02 2.77-12.38-1.43v-56.33c0-5.19 2-9.52 5.95-12.89l43.18-36.8c8.02-6.84 17.69-9.23 27.97-6.92l58.94 13.25c14.67 3.3 28.48 1.91 42.2-4.24l5.69-2.55 37.2 113.38c-6.51 2.26-11.63 6.4-15.21 12.38zm80.02-17.3-40.91 13.42c-2.03.67-4.21.5-6.14-.48s-3.36-2.63-4.03-4.66l-42.69-130.1c-.67-2.03-.5-4.21.48-6.14s2.63-3.36 4.66-4.03l40.91-13.42c.83-.27 1.68-.4 2.51-.4 3.39 0 6.55 2.16 7.66 5.55l42.69 130.1c1.39 4.21-.92 8.77-5.14 10.16zM238.15 165.86l-27.23-27.22c-2.34-2.34-2.34-6.14 0-8.49 2.34-2.34 6.14-2.34 8.49 0l22.98 22.98 50.21-50.21c2.34-2.34 6.14-2.34 8.49 0 2.34 2.34 2.34 6.14 0 8.49l-54.45 54.45c-1.17 1.17-2.71 1.76-4.24 1.76s-3.08-.59-4.25-1.76z" fill="#ffffff" opacity="1" data-original="#000000"></path></g></svg>