<svg width="6991" height="15819" viewBox="0 0 6991 15819" fill="none" xmlns="http://www.w3.org/2000/svg">
<path d="M6961.8 5397.28C6885 5065.76 6730.76 4396.32 6568.2 3669.28C6485.64 3298.72 6391.56 2930.72 6115.08 2873.12C6115.08 2873.12 5386.76 3161.12 5386.76 3698.08C5386.76 4235.04 5983.88 4437.28 5983.88 4437.28C5983.88 4437.28 6367.88 5504.16 6359.56 5653.28" fill="#FFA8A7"/>
<path d="M484.362 2031.52C391.562 2192.16 240.522 2279.2 81.1624 2192.8L72.2015 2188.32H68.3617C44.9009 2170.51 26.4027 2146.97 14.637 2119.97C2.87139 2092.96 -1.76741 2063.39 1.16244 2034.08C5.70685 1950.11 29.9797 1868.4 72.012 1795.56C114.044 1722.73 172.652 1660.83 243.082 1614.88C266.425 1598.69 293.307 1588.32 321.477 1584.65C349.647 1580.97 378.287 1584.1 405.002 1593.76L413.961 1598.24L428.041 1607.84C577.161 1701.28 575.882 1873.44 484.362 2031.52Z" fill="#263238"/>
<path d="M348.041 1774.88C435.081 1724.96 505.482 1765.28 505.482 1865.76C502.502 1920.38 486.693 1973.52 459.34 2020.89C431.986 2068.26 393.856 2108.52 348.041 2138.4C261.641 2188.32 191.242 2148 191.242 2047.52C194.252 1992.98 210.004 1939.91 237.234 1892.56C264.465 1845.21 302.416 1804.91 348.041 1774.88Z" fill="#455A64"/>
<path d="M856.842 2044.32C714.412 1971.93 582.969 1879.71 466.441 1770.4L235.402 2149.92C392.123 2193.87 541.243 2261.42 677.643 2350.24L856.842 2044.32Z" fill="#455A64"/>
<path d="M4504.84 2724.64C4253.96 2724.64 4003.08 2704.8 3814.28 2839.2C3325.32 3186.72 2706.44 3645.6 2406.28 3898.4C2406.28 3898.4 1520.52 2116 1196.04 1888.16C986.761 1740.96 821.003 1678.88 675.723 1670.56C608.443 1663.72 540.506 1673.3 477.747 1698.5C414.987 1723.69 359.278 1763.74 315.403 1815.2C178.443 1975.2 229.003 2199.2 549.643 2145.44C635.403 2130.72 698.762 1953.44 698.762 1953.44C778.122 1961.12 724.362 2230.56 802.442 2249.12C938.122 2432.8 1093 2356 1169.8 2554.4C1275.4 2828.32 1923.08 4583.84 2026.12 4717.6C2139.4 4864.8 2289.8 4917.28 2538.12 4789.28C2786.44 4661.28 4056.84 3862.56 4056.84 3862.56L4504.84 2724.64Z" fill="#FFA8A7"/>
<path d="M1012.36 2101.92C1012.37 2051.55 992.58 2003.19 957.262 1967.27C921.944 1931.36 873.927 1910.76 823.562 1909.92C800.566 1910.02 777.783 1914.36 756.361 1922.72H752.521L745.482 1925.92C735.05 1929.69 724.982 1934.4 715.402 1940C659.621 1976.15 613.159 2024.96 579.797 2082.46C546.434 2139.95 527.113 2204.51 523.402 2270.88C523.421 2287.05 525.354 2303.16 529.162 2318.88C536.938 2365.61 562.053 2407.69 599.494 2436.71C636.935 2465.73 683.946 2479.56 731.139 2475.44C778.332 2471.32 822.234 2449.55 854.078 2414.48C885.922 2379.41 903.364 2333.61 902.922 2286.24C903.562 2280.28 903.562 2274.28 902.922 2268.32C934.636 2253.24 961.608 2229.76 980.904 2200.42C1000.2 2171.08 1011.08 2137.01 1012.36 2101.92Z" fill="#263238"/>
<path d="M823.562 2005.92C929.162 1941.92 1015.56 1994.4 1015.56 2116.64C1011.8 2183 992.458 2247.54 959.1 2305.02C925.742 2362.51 879.308 2411.33 823.562 2447.52C717.963 2508.32 631.562 2459.04 631.562 2337.44C635.225 2270.97 654.52 2206.31 687.883 2148.7C721.245 2091.09 767.732 2042.17 823.562 2005.92Z" fill="#455A64"/>
<path d="M5928.84 14029H5409.16V14785.4H5928.84V14029Z" fill="#FFA8A7"/>
<path d="M4534.28 14562.1C4502.92 14654.9 4346.76 14728.5 4234.12 14812.3C4191.47 14842.2 4160.88 14886.4 4147.86 14936.8C4134.84 14987.3 4140.23 15040.7 4163.08 15087.5C4205.32 15160.5 4404.36 15198.2 4616.2 15164.3C4855.56 15125.3 5064.2 15024.8 5106.44 14812.3C5133.37 14634.3 5180.61 14459.9 5247.24 14292.6C5288.84 14183.2 5361.8 14080.2 5344.52 13972.6C5333.43 13920.1 5311.84 13870.3 5281.05 13826.4C5250.25 13782.4 5210.89 13745 5165.32 13716.6C5165.32 13716.6 4772.36 14607.5 4661.64 14628.6C4550.92 14649.8 4534.28 14562.1 4534.28 14562.1Z" fill="#263238"/>
<path d="M4516.36 13372.3C4516.36 13372.3 4599.56 13667.4 4627.08 13764C4654.6 13860.6 4616.2 14352.8 4563.08 14488.5C4542.56 14567.3 4496.41 14637.1 4431.88 14686.9C4431.88 14686.9 4272.52 14825.1 4456.84 14852.6C4532.85 14870.8 4612.42 14867.1 4686.45 14842.1C4760.48 14817.1 4825.96 14771.7 4875.4 14711.2C4997.64 14571.7 5013 14171.7 5094.92 14007.2C5147.4 13901.6 5185.8 13837 5199.88 13802.4C5213.96 13767.8 5163.4 13749.3 5112.2 13600.2C5071.64 13453.1 5041.48 13303.4 5021.96 13152.2L4516.36 13372.3Z" fill="#FFA8A7"/>
<path d="M6291.08 6319.52C6562.44 7074.08 6325.64 8389.92 6255.24 9135.52C6186.76 9858.08 6101.64 10702.9 6101.64 10702.9C6101.64 10702.9 6323.08 11467 6312.2 12055.8C6301.32 12681.1 5935.24 14187 5935.24 14187C5855.71 14238.1 5763.19 14265.2 5668.68 14265.2C5574.17 14265.2 5481.65 14238.1 5402.12 14187C5402.12 14187 5308.68 12923 5224.2 12203C5135.24 11453.6 5105.16 10907 5028.36 10468.6C4931.72 9922.72 4845.32 7771.04 4845.32 7771.04L4440.84 10037.9C4568.11 10307.6 4670.72 10588.2 4747.4 10876.3C4861.32 11319.8 5084.04 13399.2 5084.04 13399.2C5084.04 13399.2 4922.12 13634.7 4561.16 13595.7C4561.16 13595.7 3514.12 10587.7 3409.16 10303.5C3265.8 9910.56 3507.72 7329.44 3587.08 6463.52L6291.08 6319.52Z" fill="#455A64"/>
<path d="M5368.2 2752.16C5368.2 2752.16 6027.4 2834.72 6115.08 2874.4C5425.16 3359.52 5983.88 4438.56 5983.88 4438.56L5649.8 5356.96C5935.24 5676.96 6107.4 5853.6 6289.8 6316.96C6097.8 6539.68 4902.28 7308.96 3587.72 6463.52C3614.67 6017.47 3666.37 5573.27 3742.6 5132.96C3550.6 4226.08 3533.32 3940 3587.72 3728.16C3743.24 3132.32 4096.52 2748.32 4504.84 2727.2L5368.2 2752.16Z" fill="#3A1078"/>
<path opacity="0.2" d="M5368.2 2752.16C5368.2 2752.16 6027.4 2834.72 6115.08 2874.4C5425.16 3359.52 5983.88 4438.56 5983.88 4438.56L5649.8 5356.96C5935.24 5676.96 6107.4 5853.6 6289.8 6316.96C6097.8 6539.68 4902.28 7308.96 3587.72 6463.52C3614.67 6017.47 3666.37 5573.27 3742.6 5132.96C3550.6 4226.08 3533.32 3940 3587.72 3728.16C3743.24 3132.32 4096.52 2748.32 4504.84 2727.2L5368.2 2752.16Z" fill="black"/>
<path d="M5409.16 14528.8V14454.6C5345.12 14700.5 5217.04 14925.1 5037.96 15105.4C4874.12 15254.6 4650.12 15425.4 4593.16 15593.8C4536.2 15762.1 4857.48 15836.3 5069.32 15814.6C5275.27 15789.6 5465.04 15690.4 5603.08 15535.5C5737.48 15381.3 5735.56 15275.7 5795.08 15190.6C5854.6 15105.4 6003.08 15010.1 6037 14912.2C6055.56 14857.8 6033.16 14739.4 6006.92 14638.9C5980.68 14538.4 5957 14446.9 5925.64 14454.6V14511.5C5851.6 14569.6 5759.89 14600.5 5665.8 14599.2C5592.84 14602.4 5408.52 14588.3 5409.16 14528.8Z" fill="#263238"/>
<path d="M5928.84 14511.5C5912.84 14460.3 5774.6 14583.8 5656.84 14588.3C5580.68 14591.5 5464.84 14582.6 5464.84 14524.3L5409.16 14454.6C5345.12 14700.5 5217.03 14925.1 5037.96 15105.4L4913.16 15216.2C4825.48 15313.4 4849.16 15397.9 5055.24 15415.8C5261.32 15433.8 5439.24 15309.6 5596.04 15118.9C5752.84 14928.2 5928.84 14511.5 5928.84 14511.5Z" fill="#FFA8A7"/>
<path d="M4918.92 2309.92H4796.04C4640.64 2309.92 4486.76 2279.31 4343.19 2219.84C4199.62 2160.37 4069.16 2073.21 3959.28 1963.32C3849.39 1853.44 3762.23 1722.98 3702.76 1579.41C3643.29 1435.84 3612.68 1281.96 3612.68 1126.56V1006.24C3612.68 739.411 3718.68 483.51 3907.36 294.834C4096.03 106.157 4351.93 0.159912 4618.76 0.159912H5103.24C5235.36 0.159912 5366.19 26.1827 5488.25 76.7429C5610.32 127.303 5721.23 201.411 5814.65 294.834C5908.07 388.257 5982.18 499.167 6032.74 621.23C6083.3 743.293 6109.32 874.12 6109.32 1006.24V1119.52C6109.32 1435.23 5983.91 1738.02 5760.66 1961.26C5537.42 2184.5 5234.64 2309.92 4918.92 2309.92Z" fill="#263238"/>
<path d="M4022.92 503.2C3891.08 581.28 3727.88 912.8 3743.88 1607.84C3757.96 2196.64 3948.68 2342.56 4044.68 2384.16C4140.68 2425.76 4325.64 2400.8 4504.84 2370.72V2724.64C4504.84 2724.64 4256.52 3013.28 4272.52 3172.64C4288.52 3332 4630.92 3372.96 4863.88 3214.88C5096.84 3056.8 5292.04 2747.68 5292.04 2747.68L5288.2 1934.88C5288.2 1934.88 5393.8 2037.28 5573 1880.48C5721.48 1752.48 5771.4 1532.96 5655.56 1415.84C5631.2 1392.62 5602.5 1374.42 5571.1 1362.3C5539.71 1350.18 5506.23 1344.37 5472.58 1345.21C5438.94 1346.04 5405.79 1353.5 5375.03 1367.15C5344.27 1380.81 5316.5 1400.4 5293.32 1424.8C5273.44 1446.09 5257.22 1470.53 5245.32 1497.12C5245.32 1497.12 4958.6 1508 4576.52 1298.08C4428.39 1218.26 4301.11 1104.72 4204.95 966.646C4108.78 828.569 4046.43 669.815 4022.92 503.2Z" fill="#FFA8A7"/>
<path d="M4401.8 1460C4401.7 1474.54 4405.86 1488.8 4413.79 1500.99C4421.71 1513.18 4433.04 1522.78 4446.37 1528.59C4459.7 1534.41 4474.45 1536.17 4488.77 1533.68C4503.1 1531.19 4516.38 1524.54 4526.96 1514.56C4537.55 1504.59 4544.97 1491.72 4548.3 1477.57C4551.64 1463.41 4550.74 1448.59 4545.73 1434.94C4540.71 1421.29 4531.8 1409.41 4520.09 1400.78C4508.39 1392.15 4494.4 1387.15 4479.88 1386.4C4469.96 1386.06 4460.07 1387.67 4450.78 1391.16C4441.49 1394.64 4432.97 1399.92 4425.72 1406.7C4418.47 1413.47 4412.62 1421.61 4408.52 1430.65C4404.42 1439.68 4402.13 1449.44 4401.8 1459.36V1460Z" fill="#263238"/>
<path d="M4381.96 1959.2L4209.8 2014.24C4215.69 2036.92 4230.28 2056.35 4250.41 2068.34C4270.54 2080.32 4294.58 2083.88 4317.32 2078.24H4321.8C4345.5 2070.34 4365.12 2053.4 4376.39 2031.1C4387.65 2008.81 4389.66 1982.97 4381.96 1959.2Z" fill="#F28F8F"/>
<path d="M3794.44 1232.16L3944.2 1128.48C3938.23 1118.73 3930.41 1110.25 3921.16 1103.53C3911.92 1096.8 3901.44 1091.97 3890.33 1089.29C3879.21 1086.62 3867.68 1086.16 3856.39 1087.94C3845.1 1089.72 3834.27 1093.71 3824.52 1099.68H3820.04C3809.66 1106.69 3800.75 1115.68 3793.85 1126.14C3786.94 1136.6 3782.16 1148.31 3779.78 1160.61C3777.41 1172.92 3777.48 1185.57 3779.99 1197.85C3782.51 1210.12 3787.42 1221.78 3794.44 1232.16Z" fill="#263238"/>
<path d="M3829 1404.32C3828.9 1418.86 3833.06 1433.12 3840.99 1445.31C3848.91 1457.5 3860.24 1467.1 3873.57 1472.91C3886.9 1478.73 3901.65 1480.49 3915.97 1478C3930.3 1475.51 3943.58 1468.86 3954.16 1458.88C3964.74 1448.91 3972.16 1436.04 3975.5 1421.89C3978.84 1407.73 3977.94 1392.91 3972.93 1379.26C3967.91 1365.61 3959 1353.73 3947.29 1345.1C3935.59 1336.47 3921.61 1331.47 3907.08 1330.72C3886.99 1330.2 3867.5 1337.65 3852.88 1351.43C3838.25 1365.22 3829.67 1384.23 3829 1404.32Z" fill="#263238"/>
<path d="M4178.44 1364L4166.92 1810.08L3932.04 1737.12L4178.44 1364Z" fill="#F28F8F"/>
<path d="M4504.84 2370.72C4696.84 2345.76 5084.68 2234.4 5144.84 2080.16C5120.69 2158.11 5073.09 2226.72 5008.52 2276.64C4892.04 2376.48 4504.84 2492.32 4504.84 2492.32V2370.72Z" fill="#F28F8F"/>
<path d="M5846.92 4814.88L5328.52 5517.6L5649.8 5356.96L5846.92 4814.88Z" fill="#3A1078"/>
<path opacity="0.4" d="M5846.92 4814.88L5328.52 5517.6L5649.8 5356.96L5846.92 4814.88Z" fill="black"/>
<path d="M1112.84 2458.4C1019.97 2412.27 923.426 2373.95 824.201 2343.84C764.278 2318.24 701.556 2299.77 637.322 2288.8C589.322 2280.48 588.681 2135.2 760.201 2151.2C931.721 2167.2 998.281 2176.8 1016.2 2116.64L1112.84 2458.4Z" fill="#FFA8A7"/>
<path d="M6360.84 5653.92C6355.08 5753.12 6252.68 6805.92 6125.32 7174.56C6116.48 7199.14 6102.57 7221.59 6084.49 7240.44C6066.4 7259.3 6044.55 7274.14 6020.36 7284C5799.56 7378.72 5731.72 7483.04 5590.28 7611.68C5494.92 7698.72 5417.48 7716.64 5427.08 7747.36C5442.17 7781.05 5469.33 7807.88 5503.2 7822.57C5537.07 7837.25 5575.21 7838.74 5610.12 7826.72C5687.99 7801.9 5762.56 7767.74 5832.2 7724.96C5770.26 7857.77 5687.52 7979.84 5587.08 8086.56C5357.96 8331.68 5337.48 8489.76 5764.36 8523.04C6031.24 8544.16 6256.52 8395.04 6497.8 7819.04C6572.75 7607.76 6634.73 7392.11 6683.4 7173.28C6774.92 6814.88 6903.56 6175.52 6970.12 5838.24C6998.85 5692.83 6996.45 5542.98 6963.08 5398.56" fill="#FFA8A7"/>
<path d="M5962.12 480.801C6170.73 480.801 6370.79 563.67 6518.3 711.178C6665.81 858.687 6748.68 1058.75 6748.68 1267.36V2748.32C6540.07 2748.32 6340.01 2665.45 6192.5 2517.94C6044.99 2370.43 5962.12 2170.37 5962.12 1961.76V480.801Z" fill="#263238"/>
<path d="M4845.32 7771.04C4845.32 7771.04 4552.84 7565.6 4272.52 7327.52C4272.52 7327.52 4555.4 7701.92 4720.52 7839.52L4540.68 9478.56L4845.32 7771.04Z" fill="#263238"/>
</svg>
