<svg width="57" height="45" viewBox="0 0 57 45" fill="none" xmlns="http://www.w3.org/2000/svg">
<path d="M46.2103 1.16992L40.6016 6.77862" stroke="white" stroke-width="2" stroke-miterlimit="10" stroke-linecap="round"/>
<path d="M55.7276 13.0664L51.3086 17.6553" stroke="white" stroke-width="2" stroke-miterlimit="10" stroke-linecap="round"/>
<path d="M45.36 23.6055L43.3205 25.475C43.3205 25.475 44.3403 27.5146 42.4707 28.8742" stroke="white" stroke-width="2" stroke-miterlimit="10" stroke-linecap="round"/>
<path d="M10.6875 23.6055L12.727 25.475C12.727 25.475 12.0472 27.5146 13.9167 28.8742" stroke="white" stroke-width="2" stroke-miterlimit="10" stroke-linecap="round"/>
<path d="M34.8215 13.0664C34.8215 13.0664 33.1219 14.936 32.1021 15.6158C31.2523 16.4656 30.2325 16.9755 29.3827 16.2957C28.7029 15.6158 27.3432 14.936 25.3037 16.1257C23.2642 17.3154 19.525 20.3747 18.5053 21.3945C17.4855 22.4142 17.6555 23.434 18.5053 24.4538C19.3551 25.3036 20.8847 25.4735 21.9045 24.7937C23.0942 23.9439 23.944 23.264 29.2128 19.8648C29.2128 19.8648 40.94 27.513 43.1495 29.3826C45.529 31.2522 45.8689 33.1217 44.5092 34.6514C43.1495 36.181 41.4499 36.181 40.6001 35.3312C40.6001 35.3312 41.6199 36.351 40.4302 37.7107C39.2404 39.0704 37.8808 39.5802 36.691 38.3905C36.691 38.3905 37.2009 39.4103 36.0112 40.6C34.8215 41.7897 33.6317 41.9597 32.442 40.9399C32.442 40.9399 33.1219 41.7897 31.9321 42.9795C30.7424 44.1692 29.7227 43.9992 28.7029 43.1494C28.193 42.8095 27.5132 42.1296 27.5132 42.1296" stroke="white" stroke-width="2" stroke-miterlimit="10" stroke-linecap="round" stroke-linejoin="round"/>
<path d="M27.6837 41.9601C27.6837 41.9601 27.3437 42.47 26.4939 43.3198C25.6441 44.1696 24.7943 44.3396 23.7746 43.1498C22.7548 41.9601 23.4346 41.1103 23.4346 41.1103C22.4149 42.1301 21.3951 41.9601 20.3754 40.7704C19.3556 39.5807 19.8655 38.391 19.8655 38.391C18.8457 39.5807 17.656 39.0708 16.6362 37.7111C15.6165 36.1815 16.4663 35.1617 16.4663 35.1617C15.6165 36.0115 14.2568 36.0115 13.0671 34.3119C11.8773 32.6123 12.2173 31.0827 14.0868 29.0431C14.4267 28.7032 16.4663 27.0036 17.1461 27.3435C17.8259 27.6834 19.3556 28.0234 24.1145 33.802C28.8734 39.5807 27.6837 41.9601 27.6837 41.9601Z" stroke="white" stroke-width="2" stroke-miterlimit="10" stroke-linecap="round" stroke-linejoin="round"/>
<path d="M39.5606 5.98037L33.6719 11.8691L46.531 24.7283L52.4198 18.8395L39.5606 5.98037Z" stroke="white" stroke-width="2" stroke-miterlimit="10" stroke-linecap="round" stroke-linejoin="round"/>
<path d="M46.2091 20.5452C46.4907 20.5452 46.719 20.3169 46.719 20.0353C46.719 19.7537 46.4907 19.5254 46.2091 19.5254C45.9275 19.5254 45.6992 19.7537 45.6992 20.0353C45.6992 20.3169 45.9275 20.5452 46.2091 20.5452Z" stroke="white" stroke-width="2" stroke-miterlimit="10" stroke-linecap="round" stroke-linejoin="round"/>
<path d="M9.83789 1L15.6165 6.6087" stroke="white" stroke-width="2" stroke-miterlimit="10" stroke-linecap="round"/>
<path d="M1 13.5762L4.90909 17.4853" stroke="white" stroke-width="2" stroke-miterlimit="10" stroke-linecap="round"/>
<path d="M16.4295 5.88108L3.57031 18.7402L9.45909 24.629L22.3182 11.7698L16.4295 5.88108Z" stroke="white" stroke-width="2" stroke-miterlimit="10" stroke-linecap="round" stroke-linejoin="round"/>
<path d="M9.83801 20.3752C10.1196 20.3752 10.3479 20.147 10.3479 19.8654C10.3479 19.5838 10.1196 19.3555 9.83801 19.3555C9.55641 19.3555 9.32812 19.5838 9.32812 19.8654C9.32812 20.147 9.55641 20.3752 9.83801 20.3752Z" stroke="white" stroke-width="2" stroke-miterlimit="10" stroke-linecap="round" stroke-linejoin="round"/>
<path d="M21.0547 13.0664L24.4539 16.4656" stroke="white" stroke-width="2" stroke-miterlimit="10" stroke-linecap="round" stroke-linejoin="round"/>
</svg>
