<?xml version="1.0" encoding="utf-8"?>
<!-- Generator: Adobe Illustrator 23.1.1, SVG Export Plug-In . SVG Version: 6.00 Build 0)  -->
<svg version="1.1" id="Layer_1" xmlns="http://www.w3.org/2000/svg" xmlns:xlink="http://www.w3.org/1999/xlink" x="0px" y="0px"
	 viewBox="0 0 34.8 34.8" style="enable-background:new 0 0 34.8 34.8;" xml:space="preserve">
<style type="text/css">
	.st0{fill:none;stroke:#00BAFF;stroke-linecap:round;stroke-linejoin:round;stroke-miterlimit:10;}
</style>
<g>
	<g>
		<path class="st0" d="M17.3,3.5L28.9,8c0,0,0,8.7,0,11.9s-2.4,6.5-4.5,8.3s-7.1,5.5-7.1,5.5"/>
		<path class="st0" d="M17.3,6l9.4,3.7c0,0,0,7,0,10.2s-2.4,5.7-4.5,7.4s-4.9,3.8-4.9,3.8"/>
		<path class="st0" d="M17.3,3.5L5.8,8.1c0,0,0,8.7,0,11.9s2.4,6.5,4.5,8.3s7.1,5.5,7.1,5.5"/>
		<path class="st0" d="M17.3,6L8,9.7c0,0,0,7,0,10.2s2.4,5.7,4.5,7.4s4.9,3.8,4.9,3.8"/>
	</g>
	<path class="st0" d="M22.3,21c0-1.9-1.2-3.2-3.8-4.1v-4c0.8,0.1,1.4,0.3,1.7,0.5c0.5,0.2,1.1,0,1.3-0.5c0.2-0.5,0-1.1-0.5-1.3
		c-0.5-0.3-1.4-0.5-2.6-0.7v-0.2c0-0.6-0.5-1-1-1c-0.6,0-1,0.5-1,1V11c-2.5,0.3-3.5,2-3.5,3.5c0,1.3,0.6,2.9,3.5,3.9v4.4
		c-1.6-0.2-2.2-0.8-2.3-0.9c-0.4-0.4-1-0.5-1.4-0.1s-0.5,1-0.1,1.4c0.1,0.1,1.2,1.3,3.8,1.6v0.5c0,0.6,0.5,1,1,1c0.6,0,1-0.5,1-1
		v-0.5C21.3,24.4,22.3,22.6,22.3,21z M15,14.4c0-0.4,0.2-1.2,1.5-1.5v3.2C15.5,15.8,15,15.2,15,14.4z M18.5,22.8v-3.7
		c1.8,0.7,1.8,1.5,1.8,1.9C20.3,21.9,19.6,22.5,18.5,22.8z"/>
	<path class="st0" d="M3.3,22.8c0,1-0.8,1.8-1.8,1.8c1,0,1.8,0.8,1.8,1.8c0-1,0.8-1.8,1.8-1.8C4.1,24.6,3.3,23.8,3.3,22.8z"/>
	<path class="st0" d="M25,1.2c0,1-0.8,1.8-1.8,1.8c1-0.1,1.8,0.7,1.8,1.7c0-1,0.8-1.8,1.8-1.8C25.7,2.9,25,2.1,25,1.2z"/>
	<path class="st0" d="M30.1,26.3c0,1-0.8,1.8-1.8,1.8c1,0,1.8,0.8,1.8,1.8c0-1,0.8-1.8,1.8-1.8C30.9,28.1,30.1,27.3,30.1,26.3z"/>
</g>
</svg>
