<svg width="2427" height="7194" viewBox="0 0 2427 7194" fill="none" xmlns="http://www.w3.org/2000/svg">
<path d="M1306.45 557.056C1421.15 636.662 1559.17 865.587 1594.02 1060.83C1594.02 1060.83 1269.71 1134.55 1178.09 872.417C1100.84 651.264 1306.45 557.056 1306.45 557.056Z" fill="#263238"/>
<path d="M1448 804.352C1471.55 923.29 1495.1 1140.91 1411.49 1220.28C1411.49 1220.28 1442.11 1286.46 1631.94 1290.94C1809.29 1296.12 1780.79 1220.28 1780.79 1220.28C1648.19 1188.72 1651.72 1090.27 1674.81 997.95L1448 804.352Z" fill="#E4897B"/>
<path d="M1540.56 883.487L1674.57 997.949C1668.99 1019.42 1665.21 1041.32 1663.27 1063.42C1612.63 1056.12 1543.15 1000.54 1537.73 947.548C1534.73 926.202 1535.68 904.485 1540.56 883.487Z" fill="#CE6F64"/>
<path d="M1618.52 245.463C1651.96 192.471 1899.49 106.035 1929.64 510.894C1939.06 637.604 1980.27 644.905 2033.97 796.815C2109.81 1011.61 1937.88 1069.08 1864.16 1005.25C1864.16 1005.25 2021.73 1075.91 1976.04 909.158C1950.13 814.95 1858.28 821.545 1839.43 654.561C1822.24 506.184 1618.52 245.463 1618.52 245.463Z" fill="#263238"/>
<path d="M1316.34 620.882C1378.99 809.298 1401.37 890.788 1524.31 963.563C1709.43 1073.08 1927.28 954.849 1922.34 751.595C1918.1 568.361 1816.35 290.683 1608.39 264.069C1562.6 257.991 1516.02 263.714 1473.06 280.695C1430.1 297.676 1392.2 325.352 1362.94 361.097C1333.68 396.842 1314.05 439.47 1305.89 484.936C1297.74 530.402 1301.33 577.197 1316.34 620.882Z" fill="#E4897B"/>
<path d="M1426.57 233.923C1480.74 362.752 1473.67 630.067 1398.54 813.537C1398.54 813.537 1085.3 701.43 1148.89 431.053C1202.82 203.776 1426.57 233.923 1426.57 233.923Z" fill="#263238"/>
<path d="M1785.97 278.671C1715.31 399.258 1477.67 496.056 1285.73 545.751C1285.73 545.751 1149.6 274.432 1403.49 163.502C1619.22 69.5296 1785.97 278.671 1785.97 278.671Z" fill="#263238"/>
<path d="M1622.52 597.565C1626.52 613.11 1638.3 623.473 1648.43 621.117C1658.55 618.762 1663.5 603.453 1659.5 587.909C1655.49 572.365 1643.72 561.766 1633.35 564.357C1622.99 566.948 1617.34 581.786 1622.52 597.565Z" fill="#263238"/>
<path d="M1797.98 550.697C1802.22 566.241 1813.76 576.84 1824.13 574.249C1834.49 571.658 1839.2 556.82 1834.96 541.276C1830.72 525.732 1819.18 515.133 1809.05 517.724C1798.93 520.315 1793.98 535.152 1797.98 550.697Z" fill="#263238"/>
<path d="M1804.81 519.608L1839.43 498.883C1839.43 498.883 1827.89 533.504 1804.81 519.608Z" fill="#263238"/>
<path d="M1758.42 590.029C1781.86 621.875 1809.51 650.397 1840.61 674.816C1834.1 682.568 1826 688.83 1816.86 693.178C1807.71 697.525 1797.74 699.858 1787.62 700.017L1758.42 590.029Z" fill="#DE5753"/>
<path d="M1710.13 780.8C1679.86 781.111 1650.41 770.961 1626.76 752.067C1625.98 751.237 1625.55 750.142 1625.55 749.005C1625.55 747.867 1625.98 746.773 1626.76 745.943C1627.15 745.53 1627.63 745.201 1628.16 744.976C1628.68 744.752 1629.25 744.636 1629.82 744.636C1630.39 744.636 1630.96 744.752 1631.49 744.976C1632.01 745.201 1632.49 745.53 1632.88 745.943C1648.88 758.185 1667.52 766.52 1687.31 770.282C1707.1 774.044 1727.5 773.129 1746.87 767.611C1748 767.319 1749.19 767.475 1750.2 768.046C1751.21 768.617 1751.96 769.559 1752.29 770.673C1752.52 771.763 1752.33 772.897 1751.76 773.855C1751.2 774.813 1750.29 775.526 1749.23 775.854C1736.48 779.247 1723.33 780.911 1710.13 780.8Z" fill="#263238"/>
<path d="M1335.19 834.734C1357.57 866.044 1391.44 887.215 1429.39 893.614C1479.56 901.857 1500.05 855.46 1480.5 810.947C1463.54 770.908 1417.15 718.387 1368.86 730.634C1358.37 733.463 1348.75 738.87 1340.87 746.364C1333 753.858 1327.12 763.201 1323.77 773.544C1320.43 783.886 1319.72 794.902 1321.71 805.588C1323.7 816.274 1328.34 826.293 1335.19 834.734Z" fill="#E4897B"/>
<path d="M1554.45 533.504C1553.53 533.733 1552.56 533.733 1551.63 533.504C1549.48 532.708 1547.74 531.1 1546.77 529.03C1545.8 526.959 1545.69 524.59 1546.45 522.435C1564.35 475.331 1627.47 447.539 1630.06 446.362C1631.13 445.771 1632.32 445.414 1633.54 445.314C1634.76 445.214 1635.99 445.374 1637.15 445.781C1638.31 446.189 1639.36 446.836 1640.25 447.681C1641.14 448.525 1641.84 449.548 1642.31 450.682C1642.78 451.816 1643 453.035 1642.96 454.261C1642.92 455.487 1642.63 456.691 1642.1 457.795C1641.56 458.899 1640.8 459.877 1639.86 460.667C1638.92 461.457 1637.83 462.039 1636.65 462.377C1636.65 462.377 1577.77 487.577 1562.7 528.558C1561.94 530.081 1560.76 531.356 1559.3 532.232C1557.84 533.108 1556.16 533.549 1554.45 533.504Z" fill="#263238"/>
<path d="M1841.55 399.729C1839.88 399.694 1838.26 399.206 1836.84 398.315C1826.89 391.515 1815.48 387.16 1803.53 385.605C1791.58 384.05 1779.43 385.338 1768.07 389.366C1766.07 389.865 1763.95 389.638 1762.1 388.723C1760.25 387.809 1758.79 386.267 1757.96 384.372C1757.14 382.477 1757.02 380.353 1757.62 378.378C1758.22 376.402 1759.51 374.704 1761.24 373.586C1775.22 368.472 1790.22 366.745 1805 368.546C1819.78 370.347 1833.92 375.626 1846.26 383.949C1848.2 385.203 1849.55 387.169 1850.04 389.42C1850.52 391.671 1850.1 394.022 1848.85 395.96C1848.03 397.126 1846.93 398.076 1845.66 398.732C1844.39 399.387 1842.98 399.729 1841.55 399.729Z" fill="#263238"/>
<path d="M1628.17 566.477L1662.79 545.751C1662.79 545.751 1651.49 580.608 1628.17 566.477Z" fill="#263238"/>
<path d="M124.142 6261.35L299.84 6357.91L579.637 5982.26L404.175 5885.93L124.142 6261.35Z" fill="#E4897B"/>
<path d="M1672.69 6989.11H1873.11L1886.3 6525.37H1686.11L1672.69 6989.11Z" fill="#E4897B"/>
<path d="M1886.3 6525.6L1879.47 6764.66H1679.04L1685.88 6525.6H1886.3Z" fill="#CE6F64"/>
<path d="M403.939 5885.93L579.638 5982.49L435.264 6175.86L259.566 6079.53L403.939 5885.93Z" fill="#CE6F64"/>
<path d="M2022.9 2480.31C2022.9 2480.31 2180.94 4023.2 2167.75 4634.14C2154.09 5270.05 1921.39 6718.26 1921.39 6718.26H1650.55C1650.55 6718.26 1693.41 5306.55 1669.39 4682.66C1643.25 4002.24 1427.27 2480.31 1427.27 2480.31H2022.9Z" fill="#3A1078"/>
<path opacity="0.6" d="M2022.9 2480.31C2022.9 2480.31 2180.94 4023.2 2167.75 4634.14C2154.09 5270.05 1921.39 6718.26 1921.39 6718.26H1650.55C1650.55 6718.26 1693.41 5306.55 1669.39 4682.66C1643.25 4002.24 1427.27 2480.31 1427.27 2480.31H2022.9Z" fill="white"/>
<path opacity="0.32" d="M1672.69 2865.15C1872.64 3267.18 1712.96 4000.36 1642.3 4273.09C1606.03 3863.52 1544.8 3362.57 1497.22 2994.92C1528.31 2785.78 1580.6 2679.09 1672.69 2865.15Z" fill="#3A1078"/>
<path d="M1808.82 2480.31C1808.82 2480.31 1624.64 4084.44 1485.45 4599.99C1320.58 5212.34 499.796 6159.37 499.796 6159.37L260.508 6027.71C260.508 6027.71 829.524 4963.64 955.998 4641.44C1225.43 3954.2 994.624 2929.68 1210.12 2481.02L1808.82 2480.31Z" fill="#3A1078"/>
<path opacity="0.6" d="M1808.82 2480.31C1808.82 2480.31 1624.64 4084.44 1485.45 4599.99C1320.58 5212.34 499.796 6159.37 499.796 6159.37L260.508 6027.71C260.508 6027.71 829.524 4963.64 955.998 4641.44C1225.43 3954.2 994.624 2929.68 1210.12 2481.02L1808.82 2480.31Z" fill="white"/>
<path d="M1879.94 6966.03H1654.79C1650.92 6965.98 1647.16 6967.34 1644.22 6969.86C1641.27 6972.37 1639.34 6975.86 1638.77 6979.69L1613.33 7157.74C1612.84 7162.23 1613.29 7166.78 1614.68 7171.08C1616.06 7175.39 1618.34 7179.35 1621.37 7182.71C1624.39 7186.07 1628.1 7188.75 1632.23 7190.58C1636.37 7192.4 1640.84 7193.33 1645.37 7193.3C1723.79 7191.89 1761.71 7187.41 1860.63 7187.41C1921.39 7187.41 2047.4 7193.77 2131.48 7193.77C2215.56 7193.77 2220.03 7110.64 2184.94 7103.1C2028.09 7069.18 1966.14 7022.79 1913.39 6978.27C1904.02 6970.4 1892.18 6966.07 1879.94 6966.03Z" fill="#263238"/>
<path d="M1955.07 7000.65C1933.93 7000.25 1912.87 6997.81 1892.19 6993.35C1891.29 6993.25 1890.45 6992.84 1889.8 6992.2C1889.16 6991.56 1888.76 6990.72 1888.66 6989.81C1888.55 6988.92 1888.72 6988.01 1889.14 6987.21C1889.56 6986.41 1890.21 6985.76 1891.01 6985.34C1899.96 6980.63 1979.33 6940.12 2004.06 6953.31C2006.27 6954.55 2008.13 6956.32 2009.49 6958.45C2010.85 6960.59 2011.65 6963.03 2011.83 6965.56C2012.46 6969.88 2012.02 6974.28 2010.54 6978.39C2009.06 6982.5 2006.59 6986.18 2003.36 6989.11C1989.05 6998.35 1972.01 7002.42 1955.07 7000.65ZM1906.32 6987.22C1951.54 6994.99 1985.22 6993.11 1997.7 6982.04C1999.8 6980.08 2001.39 6977.65 2002.33 6974.94C2003.28 6972.23 2003.55 6969.33 2003.12 6966.5C2003.13 6965.35 2002.83 6964.21 2002.25 6963.21C2001.67 6962.22 2000.83 6961.4 1999.82 6960.84C1986.16 6953.31 1939.29 6971.44 1906.32 6986.75V6987.22Z" fill="#3A1078"/>
<path d="M1892.9 6993.58C1892.14 6993.87 1891.3 6993.87 1890.54 6993.58C1889.94 6993.16 1889.46 6992.59 1889.13 6991.93C1888.8 6991.28 1888.64 6990.55 1888.66 6989.81C1888.66 6987.46 1893.37 6933.76 1918.57 6912.8C1922.13 6909.8 1926.26 6907.55 1930.71 6906.17C1935.16 6904.8 1939.84 6904.33 1944.48 6904.79C1957.19 6906.2 1960.96 6912.56 1961.9 6917.74C1965.44 6941.3 1918.57 6983.22 1894.78 6994.05L1892.9 6993.58ZM1940 6912.33C1933.85 6912.37 1927.91 6914.63 1923.28 6918.69C1908.36 6936.45 1899.38 6958.44 1897.61 6981.57C1922.34 6966.97 1955.07 6932.58 1952.72 6918.22C1952.72 6918.22 1952.72 6913.27 1942.83 6912.56L1940 6912.33Z" fill="#3A1078"/>
<path d="M337.523 6334.13L158.527 6197.76C155.497 6195.35 151.688 6194.14 147.823 6194.36C143.958 6194.57 140.307 6196.2 137.566 6198.94L9.44329 6325.18C6.41453 6328.43 4.09599 6332.28 2.63493 6336.47C1.17387 6340.67 0.602577 6345.13 0.957011 6349.56C1.31144 6353.99 2.58398 6358.3 4.69379 6362.21C6.80361 6366.12 9.70431 6369.55 13.2117 6372.28C76.5666 6419.38 109.304 6437.99 187.967 6498.05C236.485 6535.02 303.372 6593.9 370.26 6644.78C437.148 6695.65 492.024 6633.47 468.472 6605.68C364.137 6483.68 372.615 6431.63 357.542 6364.27C354.67 6352.16 347.572 6341.47 337.523 6334.13Z" fill="#263238"/>
<path d="M2119.23 1271.62C2119.23 1271.62 2214.85 1305.3 2023.61 2480.31H1210.12C1223.78 2150.58 1224.26 1945.21 1065.99 1265.74C1179.6 1242.33 1294.75 1227.14 1410.55 1220.28C1533.49 1211.44 1656.91 1211.44 1779.85 1220.28C1939.53 1234.88 2119.23 1271.62 2119.23 1271.62Z" fill="#263238"/>
<path d="M405.117 6417.97C380.388 6417.97 349.77 6385.47 334.461 6365.45C334.048 6364.73 333.83 6363.92 333.83 6363.09C333.83 6362.27 334.048 6361.46 334.461 6360.74C334.842 6359.96 335.453 6359.32 336.211 6358.9C336.969 6358.47 337.838 6358.3 338.701 6358.38C346.708 6358.38 418.777 6364.74 430.789 6386.88C432.242 6389.3 433.01 6392.07 433.01 6394.89C433.01 6397.71 432.242 6400.48 430.789 6402.9C428.878 6407.04 425.917 6410.61 422.198 6413.26C418.48 6415.9 414.133 6417.53 409.592 6417.97H405.117ZM346.944 6368.04C370.496 6395.36 392.399 6410.67 406.766 6409.26C409.989 6408.85 413.045 6407.59 415.614 6405.6C418.182 6403.61 420.17 6400.97 421.368 6397.95C422.007 6396.8 422.343 6395.5 422.343 6394.18C422.343 6392.86 422.007 6391.57 421.368 6390.41C415.245 6378.87 375.913 6371.1 346.944 6368.04Z" fill="#3A1078"/>
<path d="M343.646 6367.57H336.345C335.598 6367.48 334.888 6367.19 334.289 6366.74C333.689 6366.28 333.221 6365.68 332.934 6364.98C332.646 6364.29 332.549 6363.53 332.652 6362.78C332.754 6362.04 333.054 6361.33 333.519 6360.74C334.932 6358.62 370.025 6313.64 398.758 6311.04C402.34 6310.65 405.965 6311.08 409.354 6312.3C412.743 6313.53 415.805 6315.52 418.306 6318.11C421.166 6320.37 423.168 6323.54 423.982 6327.1C424.796 6330.65 424.372 6334.38 422.781 6337.66C413.831 6355.79 368.376 6367.57 343.646 6367.57ZM400.878 6319.05H399.465C381.801 6319.05 358.013 6344.02 345.531 6358.62C369.083 6358.62 408.885 6346.14 415.009 6333.18C416.186 6331.06 416.893 6328 412.183 6323.53C410.696 6322.06 408.928 6320.91 406.986 6320.14C405.043 6319.37 402.966 6319 400.878 6319.05Z" fill="#3A1078"/>
<path d="M1308.57 2524.83H1286.67C1282.19 2524.83 1278.9 2522.47 1279.13 2519.88L1289.49 2425.67C1289.49 2422.85 1293.73 2420.49 1297.97 2420.49H1320.11C1324.59 2420.49 1327.88 2422.85 1327.41 2425.67L1317.29 2519.88C1316.34 2522.47 1313.05 2524.83 1308.57 2524.83Z" fill="#3A1078"/>
<path d="M1965.67 2524.83H1943.53C1939.29 2524.83 1935.76 2522.47 1936.23 2519.88L1946.6 2425.67C1946.6 2422.85 1950.6 2420.49 1955.07 2420.49H1977.21C1981.45 2420.49 1984.75 2422.85 1984.51 2425.67L1974.15 2519.88C1973.92 2522.47 1970.15 2524.83 1965.67 2524.83Z" fill="#3A1078"/>
<path d="M1627.7 6727.92H1945.42L1968.73 6626.64L1612.86 6614.16L1627.7 6727.92Z" fill="#3A1078"/>
<path opacity="0.5" d="M1627.7 6727.92H1945.42L1968.73 6626.64L1612.86 6614.16L1627.7 6727.92Z" fill="black"/>
<path d="M226.122 6024.42L523.113 6187.63L606.016 6111.8L265.454 5904.07L226.122 6024.42Z" fill="#3A1078"/>
<path opacity="0.5" d="M226.122 6024.42L523.113 6187.63L606.016 6111.8L265.454 5904.07L226.122 6024.42Z" fill="black"/>
<path d="M1198.58 2432.74L1177.62 2505.51C1174.8 2511.17 1181.63 2516.82 1190.81 2516.82H2027.61C2034.92 2516.82 2041.04 2513.29 2041.51 2508.81L2048.81 2435.8C2048.81 2430.85 2042.92 2426.61 2034.92 2426.61H1210.6C1208.24 2426.55 1205.91 2427.08 1203.81 2428.15C1201.72 2429.22 1199.92 2430.8 1198.58 2432.74Z" fill="#3A1078"/>
<path opacity="0.3" d="M1198.58 2432.74L1177.62 2505.51C1174.8 2511.17 1181.63 2516.82 1190.81 2516.82H2027.61C2034.92 2516.82 2041.04 2513.29 2041.51 2508.81L2048.81 2435.8C2048.81 2430.85 2042.92 2426.61 2034.92 2426.61H1210.6C1208.24 2426.55 1205.91 2427.08 1203.81 2428.15C1201.72 2429.22 1199.92 2430.8 1198.58 2432.74Z" fill="black"/>
<path d="M1797.51 1196.26C1797.51 1196.26 1847.21 2257.75 1844.62 2847.25C1842.02 3436.76 1936.47 4071.96 1936.47 4071.96L2336.85 3927.35C2336.85 3927.35 2097.8 2702.64 2110.05 2333.82C2122.29 1964.99 2168.22 1294.23 2168.22 1294.23C2168.22 1294.23 2040.1 1201.44 1797.51 1196.26Z" fill="#3A1078"/>
<path opacity="0.3" d="M1797.51 1196.26C1797.51 1196.26 1847.21 2257.75 1844.62 2847.25C1842.02 3436.76 1936.47 4071.96 1936.47 4071.96L2336.85 3927.35C2336.85 3927.35 2097.8 2702.64 2110.05 2333.82C2122.29 1964.99 2168.22 1294.23 2168.22 1294.23C2168.22 1294.23 2040.1 1201.44 1797.51 1196.26Z" fill="black"/>
<path d="M1415.26 1190.13C1415.26 1190.13 1424.45 2317.33 1427.98 2906.84C1431.51 3496.35 1370.98 4066.3 1370.98 4066.3L837.296 3948.54C837.296 3948.54 1116.39 2695.34 1104.14 2327.46C1091.89 1959.58 1009.93 1252.31 1009.93 1252.31C1141.29 1211.95 1277.84 1191 1415.26 1190.13Z" fill="#3A1078"/>
<path opacity="0.3" d="M1415.26 1190.13C1415.26 1190.13 1424.45 2317.33 1427.98 2906.84C1431.51 3496.35 1370.98 4066.3 1370.98 4066.3L837.296 3948.54C837.296 3948.54 1116.39 2695.34 1104.14 2327.46C1091.89 1959.58 1009.93 1252.31 1009.93 1252.31C1141.29 1211.95 1277.84 1191 1415.26 1190.13Z" fill="black"/>
<path d="M2399.74 1971.82C2398.09 1963.82 2396.2 1955.81 2394.55 1948.27C2391.02 1932.73 2387.25 1917.18 2383.72 1901.17C2378.54 1879.27 2373.12 1857.36 2367.94 1835.46C2361.35 1809.08 2354.75 1782.7 2347.92 1756.56C2341.09 1730.42 2332.61 1698.62 2324.37 1669.65C2316.13 1640.68 2307.41 1610.3 2298.46 1580.63C2289.51 1550.95 2280.56 1523.16 2270.91 1494.66C2261.25 1466.16 2252.77 1442.85 2242.41 1417.41C2233.93 1396.21 2224.51 1375.02 2213.91 1354.53C2206.96 1338.94 2198.19 1324.23 2187.77 1310.72C2182.36 1303.6 2175.34 1297.87 2167.28 1294C2090.26 1263.14 2014.66 1315.43 1987.34 1410.58L1994.41 1641.86C2022.67 1706.16 2049.28 1771.16 2074.01 1835.69C2098.74 1900.23 2121.12 1965.7 2138.54 2029.53C2156.24 2089.27 2167.15 2150.81 2171.05 2213C2171.88 2279.09 2167.63 2345.16 2158.33 2410.6C2149.38 2478.9 2137.6 2548.38 2123.71 2618.09C2096.15 2756.81 2063.18 2898.36 2028.32 3036.85L2159.03 3086.78C2225.24 2952.79 2282.06 2814.36 2329.08 2672.5C2352.63 2601.84 2373.83 2528.36 2390.79 2453.23C2409.6 2375.48 2421.27 2296.17 2425.64 2216.29C2427.37 2164.81 2424.61 2113.27 2417.4 2062.26C2412.69 2031.88 2407.04 2001.74 2399.74 1971.82Z" fill="#3A1078"/>
<path opacity="0.3" d="M2399.74 1971.82C2398.09 1963.82 2396.2 1955.81 2394.55 1948.27C2391.02 1932.73 2387.25 1917.18 2383.72 1901.17C2378.54 1879.27 2373.12 1857.36 2367.94 1835.46C2361.35 1809.08 2354.75 1782.7 2347.92 1756.56C2341.09 1730.42 2332.61 1698.62 2324.37 1669.65C2316.13 1640.68 2307.41 1610.3 2298.46 1580.63C2289.51 1550.95 2280.56 1523.16 2270.91 1494.66C2261.25 1466.16 2252.77 1442.85 2242.41 1417.41C2233.93 1396.21 2224.51 1375.02 2213.91 1354.53C2206.96 1338.94 2198.19 1324.23 2187.77 1310.72C2182.36 1303.6 2175.34 1297.87 2167.28 1294C2090.26 1263.14 2014.66 1315.43 1987.34 1410.58L1994.41 1641.86C2022.67 1706.16 2049.28 1771.16 2074.01 1835.69C2098.74 1900.23 2121.12 1965.7 2138.54 2029.53C2156.24 2089.27 2167.15 2150.81 2171.05 2213C2171.88 2279.09 2167.63 2345.16 2158.33 2410.6C2149.38 2478.9 2137.6 2548.38 2123.71 2618.09C2096.15 2756.81 2063.18 2898.36 2028.32 3036.85L2159.03 3086.78C2225.24 2952.79 2282.06 2814.36 2329.08 2672.5C2352.63 2601.84 2373.83 2528.36 2390.79 2453.23C2409.6 2375.48 2421.27 2296.17 2425.64 2216.29C2427.37 2164.81 2424.61 2113.27 2417.4 2062.26C2412.69 2031.88 2407.04 2001.74 2399.74 1971.82Z" fill="black"/>
<path d="M1023.59 1991.14C1025.48 1985.48 1027.83 1980.07 1029.72 1974.42C1063.87 1907.29 1146.3 1744.08 1218.13 1590.99C1236.26 1554.11 1247.36 1514.17 1250.87 1473.23L1240.51 1379.02C1226.49 1331.84 1194.56 1292.02 1151.56 1268.08C1108.56 1244.14 1057.89 1237.97 1010.4 1250.9C843.42 1289.29 718.359 2094.77 718.359 2094.77H719.772C717.181 2112.43 714.591 2130.09 712.706 2148.7C707.645 2194.41 707.645 2240.54 712.706 2286.24C717.727 2329.89 726.634 2373.01 739.32 2415.07C763.018 2493.2 794.583 2568.72 833.528 2640.47C907.874 2777.83 999.186 2905.3 1105.32 3019.89L1216.48 2934.87C1199.76 2904.96 1181.63 2872.45 1164.67 2840.66C1147.71 2808.86 1131.93 2776.36 1115.92 2744.33C1084.59 2679.8 1055.39 2615.03 1030.89 2549.79C1006.44 2487.15 987.375 2422.54 973.898 2356.66C968.151 2326.59 964.687 2296.12 963.535 2265.52C962.7 2237.12 964.752 2208.71 969.659 2180.73C982.536 2116.19 1000.57 2052.79 1023.59 1991.14Z" fill="#3A1078"/>
<path opacity="0.3" d="M1023.59 1991.14C1025.48 1985.48 1027.83 1980.07 1029.72 1974.42C1063.87 1907.29 1146.3 1744.08 1218.13 1590.99C1236.26 1554.11 1247.36 1514.17 1250.87 1473.23L1240.51 1379.02C1226.49 1331.84 1194.56 1292.02 1151.56 1268.08C1108.56 1244.14 1057.89 1237.97 1010.4 1250.9C843.42 1289.29 718.359 2094.77 718.359 2094.77H719.772C717.181 2112.43 714.591 2130.09 712.706 2148.7C707.645 2194.41 707.645 2240.54 712.706 2286.24C717.727 2329.89 726.634 2373.01 739.32 2415.07C763.018 2493.2 794.583 2568.72 833.528 2640.47C907.874 2777.83 999.186 2905.3 1105.32 3019.89L1216.48 2934.87C1199.76 2904.96 1181.63 2872.45 1164.67 2840.66C1147.71 2808.86 1131.93 2776.36 1115.92 2744.33C1084.59 2679.8 1055.39 2615.03 1030.89 2549.79C1006.44 2487.15 987.375 2422.54 973.898 2356.66C968.151 2326.59 964.687 2296.12 963.535 2265.52C962.7 2237.12 964.752 2208.71 969.659 2180.73C982.536 2116.19 1000.57 2052.79 1023.59 1991.14Z" fill="black"/>
<path d="M1233.21 2768.82L1049.5 3023.42L1013.23 3388.71C1010.64 3416.48 1019.1 3444.16 1036.78 3465.73C1048.65 3480.31 1064.18 3491.49 1081.77 3498.13C1099.37 3504.76 1118.41 3506.62 1136.95 3503.51C1155.5 3500.4 1172.89 3492.43 1187.35 3480.42C1201.82 3468.4 1212.85 3452.77 1219.31 3435.11C1256.14 3333.63 1275.96 3226.75 1277.95 3118.81C1279.6 3023.66 1286.67 2851.02 1233.21 2768.82Z" fill="#3A1078"/>
<path opacity="0.4" d="M1233.21 2768.82L1049.5 3023.42L1013.23 3388.71C1010.64 3416.48 1019.1 3444.16 1036.78 3465.73C1048.65 3480.31 1064.18 3491.49 1081.77 3498.13C1099.37 3504.76 1118.41 3506.62 1136.95 3503.51C1155.5 3500.4 1172.89 3492.43 1187.35 3480.42C1201.82 3468.4 1212.85 3452.77 1219.31 3435.11C1256.14 3333.63 1275.96 3226.75 1277.95 3118.81C1279.6 3023.66 1286.67 2851.02 1233.21 2768.82Z" fill="black"/>
<path d="M2056.58 2760.82L2186.12 3015.41L2211.32 3380.71C2213.23 3407.42 2207.52 3434.13 2194.83 3457.72C2158.09 3521.78 2086.02 3504.82 2066 3426.87C2039.67 3323.53 2025.75 3217.43 2024.55 3110.8C2022.9 3015.41 2018.66 2843.01 2056.58 2760.82Z" fill="#3A1078"/>
<path opacity="0.4" d="M2056.58 2760.82L2186.12 3015.41L2211.32 3380.71C2213.23 3407.42 2207.52 3434.13 2194.83 3457.72C2158.09 3521.78 2086.02 3504.82 2066 3426.87C2039.67 3323.53 2025.75 3217.43 2024.55 3110.8C2022.9 3015.41 2018.66 2843.01 2056.58 2760.82Z" fill="black"/>
<path d="M1428.22 1172.94C1428.22 1172.94 1434.1 2158.12 1424.68 2435.09C1374.99 2157.18 1194.34 1690.61 1194.34 1690.61L1327.65 1615.25L1183.75 1495.37L1252.28 1196.26C1310.2 1183.76 1369.04 1175.96 1428.22 1172.94Z" fill="#3A1078"/>
<path opacity="0.4" d="M1428.22 1172.94C1428.22 1172.94 1434.1 2158.12 1424.68 2435.09C1374.99 2157.18 1194.34 1690.61 1194.34 1690.61L1327.65 1615.25L1183.75 1495.37L1252.28 1196.26C1310.2 1183.76 1369.04 1175.96 1428.22 1172.94Z" fill="black"/>
<path d="M1787.38 1172.94C1787.38 1172.94 1793.51 2042.95 1839.43 2435.09C1889.6 2157.18 1999.35 1687.55 1999.35 1687.55L1914.8 1615.48L2007.83 1513.74L1938.82 1196.49C1889.6 1182 1838.68 1174.08 1787.38 1172.94Z" fill="#3A1078"/>
<path opacity="0.4" d="M1787.38 1172.94C1787.38 1172.94 1793.51 2042.95 1839.43 2435.09C1889.6 2157.18 1999.35 1687.55 1999.35 1687.55L1914.8 1615.48L2007.83 1513.74L1938.82 1196.49C1889.6 1182 1838.68 1174.08 1787.38 1172.94Z" fill="black"/>
<path d="M1812.82 1080.85C1854.74 1119.95 1874.53 1143.27 1868.64 1170.11C1862.75 1196.96 1989.46 1203.09 1893.84 1295.41C1798.22 1387.74 1307.87 1471.34 1285.73 1188.01C1282.66 1147.03 1323.65 1159.04 1335.42 1125.6C1347.2 1092.16 1351.91 1070.25 1385.59 1088.86C1437.71 1116.4 1495.13 1132.47 1553.98 1135.96C1629.35 1140.44 1747.11 1019.62 1812.82 1080.85Z" fill="#3A1078"/>
<path opacity="0.6" d="M1812.82 1080.85C1854.74 1119.95 1874.53 1143.27 1868.64 1170.11C1862.75 1196.96 1989.46 1203.09 1893.84 1295.41C1798.22 1387.74 1307.87 1471.34 1285.73 1188.01C1282.66 1147.03 1323.65 1159.04 1335.42 1125.6C1347.2 1092.16 1351.91 1070.25 1385.59 1088.86C1437.71 1116.4 1495.13 1132.47 1553.98 1135.96C1629.35 1140.44 1747.11 1019.62 1812.82 1080.85Z" fill="white"/>
<path d="M1150.07 563.179C1116.62 569.538 1043.61 326.011 1167.26 154.081C1196.82 112.083 1234.98 76.8509 1279.19 50.7231C1323.41 24.5954 1372.68 8.16919 1423.73 2.53419C1474.78 -3.10081 1526.44 2.18425 1575.29 18.0389C1624.14 33.8935 1669.06 59.9552 1707.07 94.4947C1736.28 124.641 1434.1 509.952 1150.07 563.179Z" fill="#3A1078"/>
<path d="M1150.07 563.179C1116.62 569.538 1043.61 326.011 1167.26 154.081C1196.82 112.083 1234.98 76.8509 1279.19 50.7231C1323.41 24.5954 1372.68 8.16919 1423.73 2.53419C1474.78 -3.10081 1526.44 2.18425 1575.29 18.0389C1624.14 33.8935 1669.06 59.9552 1707.07 94.4947C1736.28 124.641 1434.1 509.952 1150.07 563.179Z" fill="#3A1078"/>
<path opacity="0.6" d="M1150.07 563.179C1116.62 569.538 1043.61 326.011 1167.26 154.081C1196.82 112.083 1234.98 76.8509 1279.19 50.7231C1323.41 24.5954 1372.68 8.16919 1423.73 2.53419C1474.78 -3.10081 1526.44 2.18425 1575.29 18.0389C1624.14 33.8935 1669.06 59.9552 1707.07 94.4947C1736.28 124.641 1434.1 509.952 1150.07 563.179Z" fill="white"/>
<path d="M1745.46 77.7729C1646.31 94.0238 1276.31 236.278 1106.26 556.585C1104.64 559.842 1103.8 563.429 1103.8 567.066C1103.8 570.702 1104.64 574.289 1106.26 577.546C1130.73 624.493 1164.28 666.119 1204.94 700.017C1209.45 703.576 1215.16 705.246 1220.87 704.674C1226.58 704.103 1231.85 701.335 1235.56 696.955C1320.35 599.214 1458.36 412.918 1834.72 251.822C1837.48 250.716 1839.98 249.068 1842.08 246.976C1844.18 244.884 1845.84 242.391 1846.96 239.645C1848.08 236.899 1848.64 233.956 1848.6 230.991C1848.56 228.025 1847.93 225.098 1846.74 222.382C1823.58 175.365 1796.89 130.173 1766.89 87.1937C1764.6 83.7358 1761.36 81.0097 1757.56 79.3396C1753.76 77.6695 1749.56 77.1257 1745.46 77.7729Z" fill="#3A1078"/>
<path opacity="0.3" d="M1745.46 77.7729C1646.31 94.0238 1276.31 236.278 1106.26 556.585C1104.64 559.842 1103.8 563.429 1103.8 567.066C1103.8 570.702 1104.64 574.289 1106.26 577.546C1130.73 624.493 1164.28 666.119 1204.94 700.017C1209.45 703.576 1215.16 705.246 1220.87 704.674C1226.58 704.103 1231.85 701.335 1235.56 696.955C1320.35 599.214 1458.36 412.918 1834.72 251.822C1837.48 250.716 1839.98 249.068 1842.08 246.976C1844.18 244.884 1845.84 242.391 1846.96 239.645C1848.08 236.899 1848.64 233.956 1848.6 230.991C1848.56 228.025 1847.93 225.098 1846.74 222.382C1823.58 175.365 1796.89 130.173 1766.89 87.1937C1764.6 83.7358 1761.36 81.0097 1757.56 79.3396C1753.76 77.6695 1749.56 77.1257 1745.46 77.7729Z" fill="black"/>
</svg>
