<svg width="52" height="51" viewBox="0 0 52 51" fill="none" xmlns="http://www.w3.org/2000/svg">
<g clip-path="url(#clip0_0_2925)">
<path d="M25.987 50.0688C39.5562 50.0688 50.5561 39.0689 50.5561 25.4997C50.5561 11.9306 39.5562 0.930664 25.987 0.930664C12.4179 0.930664 1.41797 11.9306 1.41797 25.4997C1.41797 39.0689 12.4179 50.0688 25.987 50.0688Z" fill="#FCE2E2"/>
<path d="M36.4473 12.835H15.524C11.4186 12.835 8.08984 16.1637 8.08984 20.2691V30.7308C8.08984 34.8362 11.4186 38.1649 15.524 38.1649H36.4473C40.5527 38.1649 43.8814 34.8362 43.8814 30.7308V20.2691C43.8814 16.1637 40.5527 12.835 36.4473 12.835ZM31.4225 26.0072L21.6425 30.6674C21.3888 30.7942 21.0877 30.604 21.0877 30.3186V20.6971C21.0877 20.4117 21.3888 20.2215 21.6583 20.3483L31.4384 25.3097C31.7237 25.4524 31.7237 25.8803 31.4384 26.0072H31.4225Z" fill="#F61C0D"/>
</g>
<defs>
<clipPath id="clip0_0_2925">
<rect width="50.7233" height="50.7233" fill="white" transform="translate(0.625 0.138184)"/>
</clipPath>
</defs>
</svg>
